<?xml version="1.0" encoding="UTF-8"?>
<svg width="512px" height="512px" viewBox="0 0 512 512" version="1.1" xmlns="http://www.w3.org/2000/svg" xmlns:xlink="http://www.w3.org/1999/xlink">
    <!-- Generator: Sketch 51.1 (57501) - http://www.bohemiancoding.com/sketch -->
    <title>icon_512x512</title>
    <desc>Created with Sketch.</desc>
    <defs>
        <filter x="-11.8%" y="-7.2%" width="119.8%" height="120.3%" filterUnits="objectBoundingBox" id="filter-1">
            <feOffset dx="-8" dy="12" in="SourceAlpha" result="shadowOffsetOuter1"></feOffset>
            <feGaussianBlur stdDeviation="12" in="shadowOffsetOuter1" result="shadowBlurOuter1"></feGaussianBlur>
            <feColorMatrix values="0 0 0 0 0   0 0 0 0 0   0 0 0 0 0  0 0 0 0.18 0" type="matrix" in="shadowBlurOuter1" result="shadowMatrixOuter1"></feColorMatrix>
            <feMerge>
                <feMergeNode in="shadowMatrixOuter1"></feMergeNode>
                <feMergeNode in="SourceGraphic"></feMergeNode>
            </feMerge>
        </filter>
        <ellipse id="path-2" cx="64.5367079" cy="26.073904" rx="11.853681" ry="16.9480376"></ellipse>
        <filter x="-16.9%" y="-11.8%" width="133.7%" height="123.6%" filterUnits="objectBoundingBox" id="filter-3">
            <feOffset dx="-8" dy="0" in="SourceAlpha" result="shadowOffsetInner1"></feOffset>
            <feComposite in="shadowOffsetInner1" in2="SourceAlpha" operator="arithmetic" k2="-1" k3="1" result="shadowInnerInner1"></feComposite>
            <feColorMatrix values="0 0 0 0 0   0 0 0 0 0   0 0 0 0 0  0 0 0 0.14 0" type="matrix" in="shadowInnerInner1"></feColorMatrix>
        </filter>
        <ellipse id="path-4" cx="81.0141652" cy="32.7439724" rx="14.8801528" ry="21.2835821"></ellipse>
        <filter x="-13.4%" y="-9.4%" width="126.9%" height="118.8%" filterUnits="objectBoundingBox" id="filter-5">
            <feOffset dx="-8" dy="0" in="SourceAlpha" result="shadowOffsetInner1"></feOffset>
            <feComposite in="shadowOffsetInner1" in2="SourceAlpha" operator="arithmetic" k2="-1" k3="1" result="shadowInnerInner1"></feComposite>
            <feColorMatrix values="0 0 0 0 0   0 0 0 0 0   0 0 0 0 0  0 0 0 0.14 0" type="matrix" in="shadowInnerInner1"></feColorMatrix>
        </filter>
        <linearGradient x1="-322.293925%" y1="175.799426%" x2="100%" y2="26.0891045%" id="linearGradient-6">
            <stop stop-color="#FFFFFF" stop-opacity="0" offset="0%"></stop>
            <stop stop-color="#FFFFFF" offset="100%"></stop>
        </linearGradient>
        <linearGradient x1="-109.329901%" y1="132.896612%" x2="100%" y2="30.3439265%" id="linearGradient-7">
            <stop stop-color="#FFFFFF" stop-opacity="0" offset="0%"></stop>
            <stop stop-color="#FFFFFF" offset="100%"></stop>
        </linearGradient>
        <linearGradient x1="-284.682737%" y1="-154.183312%" x2="286.599216%" y2="100%" id="linearGradient-8">
            <stop stop-color="#FFFFFF" stop-opacity="0" offset="0%"></stop>
            <stop stop-color="#FFFFFF" offset="100%"></stop>
        </linearGradient>
        <linearGradient x1="-169.404644%" y1="-68.3858499%" x2="286.599216%" y2="100%" id="linearGradient-9">
            <stop stop-color="#FFFFFF" stop-opacity="0" offset="0%"></stop>
            <stop stop-color="#FFFFFF" offset="100%"></stop>
        </linearGradient>
    </defs>
    <g id="icon_512x512" stroke="none" stroke-width="1" fill="none" fill-rule="evenodd">
        <g id="Group">
            <rect id="Rectangle-2" x="0" y="0" width="512" height="512"></rect>
            <g id="Envelope" transform="translate(261.862181, 220.519369) rotate(-16.000000) translate(-261.862181, -220.519369) translate(45.862181, 72.019369)">
                <rect id="Rectangle-6" fill="#E0E0E0" x="-4.61852778e-14" y="1.94771242" width="420.324324" height="294.494118"></rect>
                <path d="M-4.61852778e-14,23.9471629 C-4.61852778e-14,11.7972019 9.84706399,1.94771242 22,1.94771242 L22,1.94771242 C34.1502645,1.94771242 44,11.7881223 44,23.9471629 L44,296.44183 L22,296.44183 C9.8497355,296.44183 -4.61852778e-14,286.60142 -4.61852778e-14,274.44238 L-4.61852778e-14,23.9471629 Z" id="Rectangle" fill="#D14B3F"></path>
                <ellipse id="Oval-5" fill="#D8D8D8" cx="399.308108" cy="22.9830065" rx="21.0162162" ry="21.0352941"></ellipse>
                <path d="M376.324324,23.9471629 C376.324324,11.7972019 386.171388,1.94771242 398.324324,1.94771242 L398.324324,1.94771242 C410.474589,1.94771242 420.324324,11.7881223 420.324324,23.9471629 L420.324324,274.44238 C420.324324,286.592341 410.47726,296.44183 398.324324,296.44183 L376.324324,296.44183 L376.324324,23.9471629 Z" id="Rectangle-Copy" fill="#C23B2D"></path>
                <path d="M18.5876757,15.3562008 C8.01826505,7.95089716 9.91876616,1.94771242 22.816873,1.94771242 L396.407581,1.94771242 C409.312713,1.94771242 411.209845,7.94833538 400.636778,15.3562008 L209.612227,149.194771 L18.5876757,15.3562008 Z" id="Rectangle-6" fill="#E3E3E3"></path>
                <path d="M210.339671,180.549701 L209.777963,181.314057 L9.41818008,42.0161291 C-0.556102426,35.0816193 -2.99268871,21.3922413 3.97839068,11.4365082 L4.01541829,11.3836273 C10.9853881,1.42947886 24.7121014,-0.98477117 34.650613,5.9742496 L210.339671,128.993052 L386.028728,5.9742496 C395.96724,-0.98477117 409.693953,1.42947886 416.663923,11.3836273 L416.70095,11.4365082 C423.67203,21.3922413 421.235443,35.0816193 411.261161,42.0161291 L210.901378,181.314057 L210.339671,180.549701 Z" id="Combined-Shape" fill="#E34D42"></path>
            </g>
            <g id="Plane" filter="url(#filter-1)" transform="translate(68.000000, 80.000000)">
                <g id="RightTurbine" transform="translate(354.019417, 253.343284) rotate(-3.000000) translate(-354.019417, -253.343284) translate(304.621359, 208.029851)">
                    <g id="Group-3" transform="translate(49.584281, 45.597281) rotate(34.000000) translate(-49.584281, -45.597281) translate(8.419232, 19.851012)">
                        <path d="M5.49220314,11.1580637 C25.0268599,2.3385009 66.7707319,-8.44756052 77.6962712,14.8667165 C77.6962712,14.8667165 77.6962712,37.1387008 77.6962712,37.1387008 C66.0385857,60.9315479 23.2699022,46.0046416 6.80927881,38.5656518 C-0.513658708,35.279062 -1.83073438,17.1069264 5.49220314,11.1580637 Z" id="Rectangle-4-Copy-10" fill="#026CCF"></path>
                        <path d="M62.2328814,47.5638474 C51.8250404,47.5638474 44.3590456,37.6155739 44.3590456,25.7887688 C44.3590456,13.9619638 46.9506066,0.357134189 57.3209792,1.494503 C63.962387,2.22289824 69.2037084,5.2493921 71.942945,7.3675243 C76.9759547,11.2593312 80.1067171,18.1301818 80.1067171,25.7887688 C80.1067171,37.6155739 72.6407223,47.5638474 62.2328814,47.5638474 Z" id="Oval-4-Copy-18" fill="#026CCF" fill-rule="nonzero"></path>
                        <path d="M63.2196322,46.9330272 C53.2495908,46.9330272 46.0976485,37.4032217 46.0976485,26.073904 C46.0976485,14.7445863 53.2495908,5.2147808 63.2196322,5.2147808 C73.1896736,5.2147808 80.3416159,14.7445863 80.3416159,26.073904 C80.3416159,37.4032217 73.1896736,46.9330272 63.2196322,46.9330272 Z" id="Oval-4-Copy-17" fill="#0087F8" fill-rule="nonzero"></path>
                        <path d="M63.2196322,46.9330272 C53.2495908,46.9330272 46.0976485,37.4032217 46.0976485,26.073904 C46.0976485,14.7445863 53.2495908,5.2147808 63.2196322,5.2147808 C73.1896736,5.2147808 80.3416159,14.7445863 80.3416159,26.073904 C80.3416159,37.4032217 73.1896736,46.9330272 63.2196322,46.9330272 Z" id="Oval-4-Copy-18" fill="#0087F8" fill-rule="nonzero"></path>
                        <g id="Oval-4-Copy-19" opacity="0.518342391">
                            <use fill="#0B2376" fill-rule="evenodd" xlink:href="#path-2"></use>
                            <use fill="black" fill-opacity="1" filter="url(#filter-3)" xlink:href="#path-2"></use>
                        </g>
                        <path d="M53.674339,19.3006857 C56.9472936,17.0923662 65.9117909,24.2242324 66.2067326,29.8879085 C66.0395261,32.3341884 54.8945357,35.9176669 53.8070352,33.3173276 C52.3949621,28.7327782 52.0906914,24.3235153 53.674339,19.3006857 Z" id="Combined-Shape" fill="#0272DC"></path>
                    </g>
                </g>
                <g id="RightWing" transform="translate(78.213592, 51.492537)" fill="#F5F5F5">
                    <path d="M164.660194,138.971741 C164.660194,138.971741 238.761901,98.6846556 259.151528,88.0267716 C280.953836,76.9774622 302.405133,76.2237357 323.049508,81.8669351 C346.290195,87.8360113 351.892916,110.251084 335.334308,131.887121 C318.775701,153.523158 255.844004,226.567164 255.844004,226.567164 L164.660194,138.971741 Z"></path>
                    <path d="M0,21.0475751 C0,21.0475751 26.2376224,7.0452593 33.4570964,3.34096901 C41.1767664,-0.499366409 48.7721519,-0.761334133 56.0818258,1.20003536 C64.3107912,3.27466772 70.2219588,10.4742083 64.5480816,18.5852206 C58.8742043,26.6962329 36.4024869,51.4925373 36.4024869,51.4925373 L0,21.0475751 Z" id="RightBackWing"></path>
                </g>
                <g id="LeftTurbine" transform="translate(189.048461, 359.001589) rotate(34.000000) translate(-189.048461, -359.001589) translate(138.621276, 327.076216)">
                    <path d="M6.89446777,14.012452 C31.4166964,2.93672206 83.8185784,-10.6085644 97.533617,18.66983 C97.533617,18.66983 97.533617,46.6392986 97.533617,46.6392986 C82.8995012,76.5186881 29.2111538,57.7732709 8.54781808,48.4312836 C-0.644805612,44.3039383 -2.29815592,21.4831168 6.89446777,14.012452 Z" id="Rectangle-4-Copy-10" fill="#0272DC"></path>
                    <path d="M6.89446777,14.012452 C14.8903043,10.4010459 25.8502577,6.52708081 37.4666902,3.96072163 C37.4666902,3.96072163 4.76021519,17.8122901 36.6798105,58.5260235 C25.4640907,55.4955638 15.2623615,51.466959 8.54781808,48.4312836 C-0.644805612,44.3039383 -2.29815592,21.4831168 6.89446777,14.012452 Z" id="Rectangle-4-Copy-10" fill="#0272DC"></path>
                    <path d="M78.1221277,59.7313433 C65.0569657,59.7313433 55.6847594,47.2381625 55.6847594,32.3858957 C55.6847594,17.533629 58.9379955,0.448494098 71.9561228,1.87681772 C80.2932093,2.79154663 86.8727404,6.59225985 90.3113565,9.25223982 C96.6293899,14.1396252 100.559496,22.7681353 100.559496,32.3858957 C100.559496,47.2381625 91.1872897,59.7313433 78.1221277,59.7313433 Z" id="Oval-4-Copy-18" fill="#0272DC" fill-rule="nonzero"></path>
                    <path d="M79.3608149,58.9391504 C66.845231,58.9391504 57.8672609,46.9714877 57.8672609,32.7439724 C57.8672609,18.5164572 66.845231,6.54879449 79.3608149,6.54879449 C91.8763988,6.54879449 100.854369,18.5164572 100.854369,32.7439724 C100.854369,46.9714877 91.8763988,58.9391504 79.3608149,58.9391504 Z" id="Oval-4-Copy-17" fill="#0087F8" fill-rule="nonzero"></path>
                    <path d="M79.3608149,58.9391504 C66.845231,58.9391504 57.8672609,46.9714877 57.8672609,32.7439724 C57.8672609,18.5164572 66.845231,6.54879449 79.3608149,6.54879449 C91.8763988,6.54879449 100.854369,18.5164572 100.854369,32.7439724 C100.854369,46.9714877 91.8763988,58.9391504 79.3608149,58.9391504 Z" id="Oval-4-Copy-18" fill="#0087F8" fill-rule="nonzero"></path>
                    <g id="Oval-4-Copy-19" opacity="0.518342391">
                        <use fill="#0B2376" fill-rule="evenodd" xlink:href="#path-4"></use>
                        <use fill="black" fill-opacity="1" filter="url(#filter-5)" xlink:href="#path-4"></use>
                    </g>
                    <path d="M67.3784256,24.2380704 C71.4870281,21.464832 83.50345,33.2405411 83.5533814,36.5658745 C83.6033128,39.8912079 68.9101618,45.1059072 67.5450017,41.8403649 C65.7723993,36.0830238 65.3904424,30.5458099 67.3784256,24.2380704 Z" id="Combined-Shape" fill="#0272DC"></path>
                </g>
                <g id="Body" transform="translate(41.165049, 0.000000)">
                    <path d="M82.3607282,98.104271 C247.506368,198.355228 308.40369,236.120493 349.265888,301.037429 L353.960647,325.54718 C353.960647,325.54718 357.397335,330.246196 359.525041,335.393662 C361.652748,340.541127 362.245194,347.147456 363.789756,350.457795 C365.334318,353.768133 373.148477,372.720679 363.287822,389.83735 C335.809903,434.00708 222.953523,363.547295 214.756776,359.333914 C146.434189,316.538399 1.02665235,98.104271 1.02665235,98.104271 C1.02665235,98.104271 1.03969141,79.0497764 11.7653466,64.3754249 C16.0090955,59.0067718 19.0940081,57.7513285 82.3607282,98.104271 Z" fill="#1790F5"></path>
                    <path d="M35.1255859,133.042613 C74.3402138,186.111564 147.397992,284.864589 183.97381,323.087786 C188.941514,328.279235 191.617384,341.753833 178.085018,328.066025 C104.686954,253.824862 1.02665235,98.104271 1.02665235,98.104271 C1.02665235,98.104271 8.62105982,100.222445 8.80424724,98.104271 C8.83400298,97.760209 11.9542173,101.814812 17.3897673,109.097391 C25.7303971,105.933645 42.2229644,108.821502 38.257489,120.915537 C36.1542887,123.790421 35.3610595,128.430705 35.1255859,133.042613 Z" id="BodyShadow" fill="#054CA6" opacity="0.14"></path>
                    <path d="M63.3708137,92.3354486 C60.0272173,94.4009386 12.4183156,64.1202761 12.4183156,64.1202761 C12.4183156,64.1202761 14.9498221,8.44549677 15.8483858,4.15364068 C17.8043347,-2.86518851 32.4392323,4.15364068 38.8704766,8.12107472 C45.3017209,12.0885088 50.4651275,14.4288561 53.83597,26.6001807 C57.2068124,38.7715053 66.7144102,90.2699586 63.3708137,92.3354486 Z" id="BackFin" fill="#1790F5"></path>
                    <path d="M216.136645,326.578246 C217.382665,333.710137 214.282281,336.666348 214.282281,342.752336 C214.282281,348.838323 220.445778,362.463009 220.445778,362.463009 C210.752498,357.766957 196.172652,345.188777 184.460897,333.710137 C187.722897,322.63013 206.155519,323.551849 216.136645,326.578246 Z" id="LeftWingShadow" fill="#054CA6" opacity="0.14"></path>
                </g>
                <g id="WindowRight" transform="translate(320.711352, 301.226416)">
                    <path d="M64.8997735,0.177012884 C65.3934479,-0.174933999 65.8892339,0.0271713121 66.0049683,0.617340601 L69.9636095,20.8038166 C70.0803173,21.3989498 69.9782048,22.3414434 69.7097585,22.8793105 C69.7097585,22.8793105 67.1967349,30.1930367 54.0347892,34.9300495 C30.669359,43.3393183 6.12574158,39.2023433 6.12574158,39.2023433 C5.53059691,39.1146475 4.95263617,38.5693114 4.82947425,37.9577044 L0.0225403165,14.0870588 C-0.098223692,13.4873595 0.27798248,13.105991 0.884771843,13.2290063 C0.884771843,13.2290063 17.5140957,17.2510261 38.6472125,12.0725596 C54.1712121,8.26855321 64.8997735,0.177012884 64.8997735,0.177012884 Z" fill="url(#linearGradient-6)" opacity="0.959999979"></path>
                    <path d="M69.9636095,20.8038166 C70.0803173,21.3989498 69.9782048,22.3414434 69.7097585,22.8793105 C69.7097585,22.8793105 67.1967349,30.1930367 54.0347892,34.9300495 C30.669359,43.3393183 6.12574158,39.2023433 6.12574158,39.2023433 C4.8503178,38.7774286 4.79314459,38.0900991 4.47553063,36.0935245 L13.9042093,37.0816355 C25.3454624,37.8653234 37.9608362,37.3107591 49.7061886,33.652198 C50.7313529,33.3328695 51.7429378,32.9938865 52.7403367,32.6349205 C55.6193249,31.5987664 58.0455789,30.3907919 60.0626751,29.0547983 C62.2674306,27.5945114 65.764458,24.786181 66.8317709,23.3287784 C67.0197337,23.0721174 69.5392891,19.5036422 69.5392891,18.8422232 L69.9636095,20.8038166 Z" id="WindowRightShine" fill="url(#linearGradient-7)" fill-rule="nonzero"></path>
                </g>
                <g id="WindowLeft" transform="translate(282.180965, 305.631615)">
                    <path d="M32.9885051,8.09160302 C33.5779889,8.25866482 34.150843,8.87315469 34.270051,9.47439524 C34.270051,9.47439524 39.2717027,34.7008477 39.2717027,34.7008477 C30.8274874,32.2598592 25.1615732,30.2073505 18.4925934,27.6875614 C4.96097927,22.5748135 1.65130709,19.5711747 1.65130709,19.5711747 C1.16510506,19.2051651 0.963613182,18.4517698 1.1959651,17.9009764 L8.46348956,0.673212214 C8.69821315,0.116796789 9.3525178,-0.143974547 9.90285306,0.0802759605 C9.90285306,0.0802759605 14.6826286,2.05696169 20.7011696,4.28564237 C24.7501891,5.78500438 32.9885051,8.09160302 32.9885051,8.09160302 Z" fill="url(#linearGradient-8)"></path>
                    <path d="M38.6333976,31.4814765 C39.021664,33.4397466 39.2717027,34.7008477 39.2717027,34.7008477 C30.8274874,32.2598592 25.1615732,30.2073505 18.4925934,27.6875614 C4.96097927,22.5748135 1.65130709,19.5711747 1.65130709,19.5711747 C1.16510506,19.2051651 0.96636146,18.4452549 1.19813925,17.8958226 L1.83630723,16.3830368 C1.83630723,16.3830368 10.516696,21.1728408 19.6368709,24.9149956 C28.7570458,28.6571505 38.6333976,31.4814765 38.6333976,31.4814765 Z" id="WindowLwftShine" fill="url(#linearGradient-9)" opacity="0.870000005"></path>
                    <path d="M1.39253757,19.4578096 C0.227715746,18.4411111 2.52066542,14.8246989 4.20983959,10.7693636 C6.22686024,5.92694104 8.45418771,0.68884699 8.45418771,0.68884699 C8.69404857,0.123796717 9.3466191,-0.146545522 9.91692635,0.08667201 C9.91692635,0.08667201 10.4280718,0.297481227 11.3495282,0.669069968 C11.3495282,0.669069968 6.22494409,11.9883489 3.96146963,17.5462067 C3.96146963,17.5462067 1.39253757,19.4578096 1.39253757,19.4578096 Z" id="WindowLeftShadow" fill="#159BE8"></path>
                </g>
                <g id="LeftWings" transform="translate(0.000000, 84.447761)" fill="#F5F5F5">
                    <path d="M44.8273119,0.00171842373 C46.3459441,-0.24050971 76.4730641,25.2025037 78.5031104,27.5404294 C81.5129586,30.3349774 80.2808227,37.4709751 77.7896105,37.4709751 C77.7896105,37.4709751 18.8196639,46.345439 14.3660408,45.2475862 C10.6445967,45.2475862 4.40976615,42.1085421 1.32740819,35.9954559 C-1.75494976,29.8823696 1.32740819,24.8375659 4.40976615,22.3704795 C4.40976615,22.3704795 41.9875884,2.81724326 41.9875884,2.81724326 C41.9875884,2.81724326 43.3086797,0.243946557 44.8273119,0.00171842373 Z" id="LeftBackWing"></path>
                    <path d="M153.892568,148.303594 C156.866756,147.817602 199.410445,182.262335 226.833882,206.28946 C239.159183,217.088309 247.700673,226.280035 249.487561,228.388229 C258.031573,236.514984 258.549769,253.467655 247.462159,257.267 C247.462159,257.267 56.6941175,295.054138 44.0516832,291.8615 C29.5958875,290.414406 17.103705,284.446143 9.42195256,274.385704 C1.74020007,264.325266 -4.655155,239.003838 15.7889531,225.33316 C15.7889531,225.33316 145.831487,156.491351 145.831487,156.491351 C145.831487,156.491351 149.581649,149.008012 153.892568,148.303594 Z" id="LeftWing"></path>
                </g>
            </g>
        </g>
    </g>
</svg>