<svg height="512" viewBox="0 0 512 512" width="512" xmlns="http://www.w3.org/2000/svg" xmlns:xlink="http://www.w3.org/1999/xlink"><defs><filter id="a" height="120.3%" width="119.8%" x="-11.8%" y="-7.2%"><feOffset dx="-8" dy="12" in="SourceAlpha" result="shadowOffsetOuter1"/><feGaussianBlur in="shadowOffsetOuter1" result="shadowBlurOuter1" stdDeviation="12"/><feColorMatrix in="shadowBlurOuter1" result="shadowMatrixOuter1" type="matrix" values="0 0 0 0 0   0 0 0 0 0   0 0 0 0 0  0 0 0 0.18 0"/><feMerge><feMergeNode in="shadowMatrixOuter1"/><feMergeNode in="SourceGraphic"/></feMerge></filter><ellipse id="b" cx="64.536708" cy="26.073904" rx="11.853681" ry="16.948038"/><filter id="c" height="123.6%" width="133.7%" x="-16.9%" y="-11.8%"><feOffset dx="-8" dy="0" in="SourceAlpha" result="shadowOffsetInner1"/><feComposite in="shadowOffsetInner1" in2="SourceAlpha" k2="-1" k3="1" operator="arithmetic" result="shadowInnerInner1"/><feColorMatrix in="shadowInnerInner1" type="matrix" values="0 0 0 0 0   0 0 0 0 0   0 0 0 0 0  0 0 0 0.14 0"/></filter><ellipse id="d" cx="81.014165" cy="32.743972" rx="14.880153" ry="21.283582"/><filter id="e" height="118.8%" width="126.9%" x="-13.4%" y="-9.4%"><feOffset dx="-8" dy="0" in="SourceAlpha" result="shadowOffsetInner1"/><feComposite in="shadowOffsetInner1" in2="SourceAlpha" k2="-1" k3="1" operator="arithmetic" result="shadowInnerInner1"/><feColorMatrix in="shadowInnerInner1" type="matrix" values="0 0 0 0 0   0 0 0 0 0   0 0 0 0 0  0 0 0 0.14 0"/></filter><linearGradient id="f"><stop offset="0" stop-color="#fff" stop-opacity="0"/><stop offset="1" stop-color="#fff"/></linearGradient><linearGradient id="g" x1="-322.293925%" x2="100%" xlink:href="#f" y1="175.799426%" y2="26.089105%"/><linearGradient id="h" x1="-109.329901%" x2="100%" xlink:href="#f" y1="132.896612%" y2="30.343927%"/><linearGradient id="i" x1="-284.682737%" x2="286.599216%" xlink:href="#f" y1="-154.183312%" y2="100%"/><linearGradient id="j" x1="-169.404644%" x2="286.599216%" xlink:href="#f" y1="-68.38585%" y2="100%"/></defs><g fill="none" fill-rule="evenodd"><path d="m0 0h512v512h-512z"/><g transform="matrix(.9612617 -.27563736 .27563736 .9612617 13.297507 137.309676)"><path d="m0 1.947712h420.324324v294.494118h-420.324324z" fill="#e0e0e0"/><path d="m0 23.9471629c0-12.149961 9.84706399-21.99945048 22-21.99945048 12.1502645 0 22 9.84040988 22 21.99945048v272.4946671h-22c-12.1502645 0-22-9.84041-22-21.99945z" fill="#d14b3f"/><ellipse cx="399.308108" cy="22.983007" fill="#d8d8d8" rx="21.016216" ry="21.035294"/><path d="m376.324324 23.9471629c0-12.149961 9.847064-21.99945048 22-21.99945048 12.150265 0 22 9.84040988 22 21.99945048v250.4952171c0 12.149961-9.847064 21.99945-22 21.99945h-22z" fill="#c23b2d"/><path d="m18.5876757 15.3562008c-10.56941065-7.40530364-8.66890954-13.40848838 4.2291973-13.40848838h373.590708c12.905132 0 14.802264 6.00062296 4.229197 13.40848838l-191.024551 133.8385702z" fill="#e3e3e3"/><path d="m210.339671 180.549701-.561708.764356-200.35978292-139.2979279c-9.97428251-6.9345098-12.41086879-20.6238878-5.4397894-30.5796209l.03702761-.0528809c6.96996981-9.95414844 20.69668311-12.36839847 30.63519471-5.4093777l175.689058 123.0188024 175.689057-123.0188024c9.938512-6.95902077 23.665225-4.54477074 30.635195 5.4093777l.037027.0528809c6.97108 9.9557331 4.534493 23.6451111-5.439789 30.5796209l-200.359783 139.2979279z" fill="#e34d42"/></g><g filter="url(#a)" transform="translate(68 80)"><g transform="matrix(.85716729613 .5150380658 -.5150380658 .85716729613 332.19521488067 210.34656874639)"><path d="m5.49220314 11.1580637c19.53465676-8.8195628 61.27852876-19.60562422 72.20406806 3.7086528v22.2719843c-11.6576855 23.7928471-54.426369 8.8659408-70.88699239 1.426951-7.32293752-3.2865898-8.64001319-21.4587254-1.31707567-27.4075881z" fill="#026ccf"/><g fill-rule="nonzero"><path d="m62.2328814 47.5638474c-10.407841 0-17.8738358-9.9482735-17.8738358-21.7750786 0-11.826805 2.591561-25.43163461 12.9619336-24.2942658 6.6414078.72839524 11.8827292 3.7548891 14.6219658 5.8730213 5.0330097 3.8918069 8.1637721 10.7626575 8.1637721 18.4212445 0 11.8268051-7.4659948 21.7750786-17.8738357 21.7750786z" fill="#026ccf"/><path d="m63.2196322 46.9330272c-9.9700414 0-17.1219837-9.5298055-17.1219837-20.8591232s7.1519423-20.8591232 17.1219837-20.8591232 17.1219837 9.5298055 17.1219837 20.8591232-7.1519423 20.8591232-17.1219837 20.8591232z" fill="#0087f8"/><path d="m63.2196322 46.9330272c-9.9700414 0-17.1219837-9.5298055-17.1219837-20.8591232s7.1519423-20.8591232 17.1219837-20.8591232 17.1219837 9.5298055 17.1219837 20.8591232-7.1519423 20.8591232-17.1219837 20.8591232z" fill="#0087f8"/></g><g opacity=".518342"><use fill="#0b2376" fill-rule="evenodd" xlink:href="#b"/><use fill="#000" filter="url(#c)" xlink:href="#b"/></g><path d="m53.674339 19.3006857c3.2729546-2.2083195 12.2374519 4.9235467 12.5323936 10.5872228-.1672065 2.4462799-11.3121969 6.0297584-12.3996974 3.4294191-1.4120731-4.5845494-1.7163438-8.9938123-.1326962-14.0166419z" fill="#0272dc"/></g><g fill="#f5f5f5" transform="translate(78.213592 51.492537)"><path d="m164.660194 138.971741s74.101707-40.2870854 94.491334-50.9449694c21.802308-11.0493094 43.253605-11.8030359 63.89798-6.1598365 23.240687 5.9690762 28.843408 28.3841489 12.2848 50.0201859-16.558607 21.636037-79.490304 94.680043-79.490304 94.680043z"/><path d="m0 21.0475751s26.2376224-14.0023158 33.4570964-17.70660609c7.71967-3.84033542 15.3150555-4.10230314 22.6247294-2.14093365 8.2289654 2.07463236 14.140133 9.27417294 8.4662558 17.38518524-5.6738773 8.1110123-28.1455947 32.9073167-28.1455947 32.9073167z"/></g><g transform="matrix(.82903757 .5591929 -.5591929 .82903757 165.094872 304.335731)"><g fill="#0272dc"><path d="m6.89446777 14.012452c24.52222863-11.07572994 76.92411063-24.6210164 90.63914923 4.657378v27.9694686c-14.6341158 29.8793895-68.3224632 11.1339723-88.98579892 1.791985-9.19262369-4.1273453-10.845974-26.9481668-1.65335031-34.4188316z"/><path d="m6.89446777 14.012452c7.99583653-3.6114061 18.95578993-7.48537119 30.57222243-10.05173037 0 0-32.70647501 13.85156847-.7868797 54.56530187-11.2157198-3.0304597-21.417449-7.0590645-28.13199242-10.0947399-9.19262369-4.1273453-10.845974-26.9481668-1.65335031-34.4188316z"/><path d="m78.1221277 59.7313433c-13.065162 0-22.4373683-12.4931808-22.4373683-27.3454476 0-14.8522667 3.2532361-31.9374016 16.2713634-30.50907798 8.3370865.91472891 14.9166176 4.71544213 18.3552337 7.3754221 6.3180334 4.88738538 10.2481395 13.51589548 10.2481395 23.13365588 0 14.8522668-9.3722063 27.3454476-22.4373683 27.3454476z" fill-rule="nonzero"/></g><path d="m79.3608149 58.9391504c-12.5155839 0-21.493554-11.9676627-21.493554-26.195178 0-14.2275152 8.9779701-26.19517791 21.493554-26.19517791s21.4935541 11.96766271 21.4935541 26.19517791c0 14.2275153-8.9779702 26.195178-21.4935541 26.195178z" fill="#0087f8" fill-rule="nonzero"/><path d="m79.3608149 58.9391504c-12.5155839 0-21.493554-11.9676627-21.493554-26.195178 0-14.2275152 8.9779701-26.19517791 21.493554-26.19517791s21.4935541 11.96766271 21.4935541 26.19517791c0 14.2275153-8.9779702 26.195178-21.4935541 26.195178z" fill="#0087f8" fill-rule="nonzero"/><g opacity=".518342"><use fill="#0b2376" fill-rule="evenodd" xlink:href="#d"/><use fill="#000" filter="url(#e)" xlink:href="#d"/></g><path d="m67.3784256 24.2380704c4.1086025-2.7732384 16.1250244 9.0024707 16.1749558 12.3278041s-14.6432196 8.5400327-16.0083797 5.2744904c-1.7726024-5.7573411-2.1545593-11.294555-.1665761-17.6022945z" fill="#0272dc"/></g><g transform="translate(41.165049)"><path d="m82.3607282 98.104271c165.1456398 100.250957 226.0429618 138.016222 266.9051598 202.933158l4.694759 24.509751s3.436688 4.699016 5.564394 9.846482c2.127707 5.147465 2.720153 11.753794 4.264715 15.064133 1.544562 3.310338 9.358721 22.262884-.501934 39.379555-27.477919 44.16973-140.334299-26.290055-148.531046-30.503436-68.322587-42.795515-213.73012365-261.229643-213.73012365-261.229643s.01303906-19.0544946 10.73869425-33.7288461c4.2437489-5.3686531 7.3286615-6.6240964 70.5953816 33.7288461z" fill="#1790f5"/><path d="m35.1255859 133.042613c39.2146279 53.068951 112.2724061 151.821976 148.8482241 190.045173 4.967704 5.191449 7.643574 18.666047-5.888792 4.978239-73.398064-74.241163-177.05836565-229.961754-177.05836565-229.961754s7.59440747 2.118174 7.77759489 0c.02975574-.344062 3.14997006 3.710541 8.58552006 10.99312 8.3406298-3.163746 24.8331971-.275889 20.8677217 11.818146-2.1032003 2.874884-2.8964295 7.515168-3.1319031 12.127076z" fill="#054ca6" opacity=".14"/><path d="m63.3708137 92.3354486c-3.3435964 2.06549-50.9524981-28.2151725-50.9524981-28.2151725s2.5315065-55.67477933 3.4300702-59.96663542c1.9559489-7.01882919 16.5908465 0 23.0220908 3.96743404 6.4312443 3.96743408 11.5946509 6.30778138 14.9654934 18.47910598 3.3708424 12.1713246 12.8784402 63.6697779 9.5348437 65.7352679z" fill="#1790f5"/><path d="m216.136645 326.578246c1.24602 7.131891-1.854364 10.088102-1.854364 16.17409 0 6.085987 6.163497 19.710673 6.163497 19.710673-9.69328-4.696052-24.273126-17.274232-35.984881-28.752872 3.262-11.080007 21.694622-10.158288 31.675748-7.131891z" fill="#054ca6" opacity=".14"/></g><g transform="translate(320.711352 301.226416)"><path d="m64.8997735.17701288c.4936744-.35194688.9894604-.14984157 1.1051948.44032772l3.9586412 20.186476c.1167078.5951332.0145953 1.5376268-.253851 2.0754939 0 0-2.5130236 7.3137262-15.6749693 12.050739-23.3654302 8.4092688-47.90904762 4.2722938-47.90904762 4.2722938-.59514467-.0876958-1.17310541-.6330319-1.29626733-1.2446389l-4.80693393-23.8706456c-.12076401-.5996993.25544216-.9810678.86223152-.8580525 0 0 16.62932386 4.0220198 37.76244066-1.1564467 15.5239996-3.80400639 26.252561-11.89554672 26.252561-11.89554672z" fill="url(#g)" opacity=".96"/><path d="m69.9636095 20.8038166c.1167078.5951332.0145953 1.5376268-.253851 2.0754939 0 0-2.5130236 7.3137262-15.6749693 12.050739-23.3654302 8.4092688-47.90904762 4.2722938-47.90904762 4.2722938-1.27542378-.4249147-1.33259699-1.1122442-1.65021095-3.1088188l9.42867867.988111c11.4412531.7836879 24.0566269.2291236 35.8019793-3.4294375 1.0251643-.3193285 2.0367492-.6583115 3.0341481-1.0172775 2.8789882-1.0361541 5.3052422-2.2441286 7.3223384-3.5801222 2.2047555-1.4602869 5.7017829-4.2686173 6.7690958-5.7260199.1879628-.256661 2.7075182-3.8251362 2.7075182-4.4865552z" fill="url(#h)" fill-rule="nonzero"/></g><g transform="translate(282.180965 305.631615)"><path d="m32.9885051 8.09160302c.5894838.1670618 1.1623379.78155167 1.2815459 1.38279222 0 0 5.0016517 25.22645246 5.0016517 25.22645246-8.4442153-2.4409885-14.1101295-4.4934972-20.7791093-7.0132863-13.53161413-5.1127479-16.84128631-8.1163867-16.84128631-8.1163867-.48620203-.3660096-.68769391-1.1194049-.45534199-1.6701983l7.26752446-17.22776419c.23472359-.55641542.88902824-.81718676 1.4393635-.59293625 0 0 4.77977554 1.97668573 10.79831654 4.20536641 4.0490195 1.49936201 12.2873355 3.80596065 12.2873355 3.80596065z" fill="url(#i)"/><path d="m38.6333976 31.4814765c.3882664 1.9582701.6383051 3.2193712.6383051 3.2193712-8.4442153-2.4409885-14.1101295-4.4934972-20.7791093-7.0132863-13.53161413-5.1127479-16.84128631-8.1163867-16.84128631-8.1163867-.48620203-.3660096-.68494563-1.1259198-.45316784-1.6753521l.63816798-1.5127858s8.68038877 4.789804 17.80056367 8.5319588c9.1201749 3.7421549 18.9965267 6.5664809 18.9965267 6.5664809z" fill="url(#j)" opacity=".87"/><path d="m1.39253757 19.4578096c-1.16482182-1.0166985 1.12812785-4.6331107 2.81730202-8.688446 2.01702065-4.84242256 4.24434812-10.08051661 4.24434812-10.08051661.23986086-.56505027.89243139-.83539251 1.46273864-.60217498 0 0 .51114545.21080922 1.43260185.58239796 0 0-5.12458411 11.31927893-7.38805857 16.87713673 0 0-2.56893206 1.9116029-2.56893206 1.9116029z" fill="#159be8"/></g><g fill="#f5f5f5" transform="translate(0 84.447761)"><path d="m44.8273119.00171842c1.5186322-.24222813 31.6457522 25.20078528 33.6757985 27.53871098 3.0098482 2.794548 1.7777123 9.9305457-.7134999 9.9305457 0 0-58.9699466 8.8744639-63.4235697 7.7766111-3.7214441 0-9.95627465-3.1390441-13.03863261-9.2521303-3.08235795-6.1130863 0-11.15789 3.08235796-13.6249764 0 0 37.57782225-19.55323624 37.57782225-19.55323624s1.3210913-2.5732967 2.8397235-2.81552484z"/><path d="m153.892568 148.303594c2.974188-.485992 45.517877 33.958741 72.941314 57.985866 12.325301 10.798849 20.866791 19.990575 22.653679 22.098769 8.544012 8.126755 9.062208 25.079426-2.025402 28.878771 0 0-190.7680415 37.787138-203.4104758 34.5945-14.4557957-1.447094-26.9479782-7.415357-34.62973064-17.475796-7.68175249-10.060438-14.07710756-35.381866 6.36700054-49.052544 0 0 130.0425339-68.841809 130.0425339-68.841809s3.750162-7.483339 8.061081-8.187757z"/></g></g></g></svg>