<?xml version="1.0" encoding="utf-8"?>
<!-- Generator: Adobe Illustrator 22.1.0, SVG Export Plug-In . SVG Version: 6.00 Build 0)  -->
<svg version="1.1" id="Layer_1" xmlns="http://www.w3.org/2000/svg" xmlns:xlink="http://www.w3.org/1999/xlink" x="0px" y="0px"
	 viewBox="0 0 209 122" style="enable-background:new 0 0 209 122;" xml:space="preserve">
<style type="text/css">
	.st0{fill:#FFFFFF;stroke:#4F8BF8;stroke-width:4;stroke-miterlimit:10;}
	.st1{fill:#4F8CF8;stroke:#446DF4;stroke-width:4;stroke-miterlimit:10;}
	.st2{fill:#4F8BF8;}
	.st3{fill:#2458EA;}
	.st4{fill:#4F8CF8;stroke:url(#SVGID_1_);stroke-width:4;stroke-miterlimit:10;}
	.st5{fill:url(#SVGID_2_);stroke:#446DF4;stroke-width:4;stroke-miterlimit:10;}
	.st6{fill:#FFFFFF;stroke:#446DF4;stroke-width:4;stroke-miterlimit:10;}
</style>
<g>
	<path class="st0" d="M50.5,51.4c2.8,1.6,20.9,11.2,20.9,11.2l16.5-14.3c0,0-23.1-4.6-29.1-5.7c-4-0.7-8.2,2.5-10.4,4.7
		C46.3,49.5,47.7,49.8,50.5,51.4z"/>
	<path class="st0" d="M159.3,51.4c-2.8,1.6-20.9,11.2-20.9,11.2l-16.5-14.3c0,0,23.1-4.6,29.1-5.7c4-0.7,8.2,2.5,10.4,4.7
		C163.5,49.5,162,49.8,159.3,51.4z"/>
	<path class="st1" d="M93.2,48.3l3.9-39c0-3.6,3-6.6,6.6-6.6h1.6c3.6,0,6.6,3,6.6,6.6l3.9,39"/>
	<path class="st0" d="M202.5,72.3l-98,4l-98-4c-2.5,0-4.5,2-4.5,4.5v1.7c0,2.5-0.2,5.3,6.9,6.9l91,13.3c2.6,0,6.5,0,9.1,0l91-13.3
		c6.8-1.6,6.9-4.4,6.9-6.9v-1.7C207,74.3,205,72.3,202.5,72.3z"/>
	<circle class="st2" cx="39.5" cy="104.3" r="17"/>
	<circle class="st3" cx="39.5" cy="104.3" r="11"/>
	<circle class="st2" cx="39.5" cy="104.3" r="4"/>
	<circle class="st2" cx="169.5" cy="104.3" r="17"/>
	<circle class="st3" cx="169.5" cy="104.3" r="11"/>
	<circle class="st2" cx="169.5" cy="104.3" r="4"/>
	<linearGradient id="SVGID_1_" gradientUnits="userSpaceOnUse" x1="78.4961" y1="111.9914" x2="130.5241" y2="59.9634">
		<stop  offset="0" style="stop-color:#4F8CF8"/>
		<stop  offset="0.5" style="stop-color:#3857F1"/>
		<stop  offset="1" style="stop-color:#4F8CF8"/>
	</linearGradient>
	<path class="st4" d="M67.3,74.8c-0.7,3.6-0.8,7.4-0.4,11.2c2,18.1,17,32.4,35.3,33.5c21.9,1.3,40.1-16.1,40.1-37.7
		c0-2.4-0.2-4.7-0.6-7H67.3z"/>
	<path class="st1" d="M104.5,44c-13.9,0-26.1,7.6-32.7,18.8h65.4C130.6,51.5,118.4,44,104.5,44z"/>
	<linearGradient id="SVGID_2_" gradientUnits="userSpaceOnUse" x1="67.3496" y1="68.75" x2="141.6504" y2="68.75">
		<stop  offset="0" style="stop-color:#4F8CF8"/>
		<stop  offset="0.25" style="stop-color:#FFFFFF"/>
		<stop  offset="0.75" style="stop-color:#FFFFFF"/>
		<stop  offset="1" style="stop-color:#4F8CF8"/>
	</linearGradient>
	<path class="st5" d="M137.2,62.8H71.8c-2.1,3.7-3.7,7.7-4.5,12h74.3C140.8,70.4,139.3,66.4,137.2,62.8z"/>
	<polygon class="st6" points="121.2,62.8 124.1,74.8 84.9,74.8 87.8,62.8 	"/>
</g>
</svg>
