<svg enable-background="new 0 0 209 122" viewBox="0 0 209 122" xmlns="http://www.w3.org/2000/svg" xmlns:xlink="http://www.w3.org/1999/xlink"><linearGradient id="a" gradientUnits="userSpaceOnUse" x1="78.4961" x2="130.5241" y1="111.9914" y2="59.9634"><stop offset="0" stop-color="#4f8cf8"/><stop offset=".5" stop-color="#3857f1"/><stop offset="1" stop-color="#4f8cf8"/></linearGradient><linearGradient id="b" gradientUnits="userSpaceOnUse" x1="67.3496" x2="141.6504" y1="68.75" y2="68.75"><stop offset="0" stop-color="#4f8cf8"/><stop offset=".25" stop-color="#fff"/><stop offset=".75" stop-color="#fff"/><stop offset="1" stop-color="#4f8cf8"/></linearGradient><g stroke-miterlimit="10" stroke-width="4"><path d="m50.5 51.4c2.8 1.6 20.9 11.2 20.9 11.2l16.5-14.3s-23.1-4.6-29.1-5.7c-4-.7-8.2 2.5-10.4 4.7-2.1 2.2-.7 2.5 2.1 4.1z" fill="#fff" stroke="#4f8bf8"/><path d="m159.3 51.4c-2.8 1.6-20.9 11.2-20.9 11.2l-16.5-14.3s23.1-4.6 29.1-5.7c4-.7 8.2 2.5 10.4 4.7 2.1 2.2.6 2.5-2.1 4.1z" fill="#fff" stroke="#4f8bf8"/><path d="m93.2 48.3 3.9-39c0-3.6 3-6.6 6.6-6.6h1.6c3.6 0 6.6 3 6.6 6.6l3.9 39" fill="#4f8cf8" stroke="#446df4"/><path d="m202.5 72.3-98 4-98-4c-2.5 0-4.5 2-4.5 4.5v1.7c0 2.5-.2 5.3 6.9 6.9l91 13.3h9.1l91-13.3c6.8-1.6 6.9-4.4 6.9-6.9v-1.7c.1-2.5-1.9-4.5-4.4-4.5z" fill="#fff" stroke="#4f8bf8"/></g><circle cx="39.5" cy="104.3" fill="#4f8bf8" r="17"/><circle cx="39.5" cy="104.3" fill="#2458ea" r="11"/><circle cx="39.5" cy="104.3" fill="#4f8bf8" r="4"/><circle cx="169.5" cy="104.3" fill="#4f8bf8" r="17"/><circle cx="169.5" cy="104.3" fill="#2458ea" r="11"/><circle cx="169.5" cy="104.3" fill="#4f8bf8" r="4"/><path d="m67.3 74.8c-.7 3.6-.8 7.4-.4 11.2 2 18.1 17 32.4 35.3 33.5 21.9 1.3 40.1-16.1 40.1-37.7 0-2.4-.2-4.7-.6-7z" fill="#4f8cf8" stroke="url(#a)" stroke-miterlimit="10" stroke-width="4"/><path d="m104.5 44c-13.9 0-26.1 7.6-32.7 18.8h65.4c-6.6-11.3-18.8-18.8-32.7-18.8z" fill="#4f8cf8" stroke="#446df4" stroke-miterlimit="10" stroke-width="4"/><path d="m137.2 62.8h-65.4c-2.1 3.7-3.7 7.7-4.5 12h74.3c-.8-4.4-2.3-8.4-4.4-12z" fill="url(#b)" stroke="#446df4" stroke-miterlimit="10" stroke-width="4"/><path d="m121.2 62.8 2.9 12h-39.2l2.9-12z" fill="#fff" stroke="#446df4" stroke-miterlimit="10" stroke-width="4"/></svg>