<?xml version="1.0" standalone="no"?>
<!DOCTYPE svg PUBLIC "-//W3C//DTD SVG 1.1//EN" "http://www.w3.org/Graphics/SVG/1.1/DTD/svg11.dtd" >
<svg xmlns="http://www.w3.org/2000/svg">
<metadata></metadata>
<defs>
<font id="jesaya_freeregular" horiz-adv-x="980" >
<font-face units-per-em="2048" ascent="1638" descent="-410" />
<missing-glyph horiz-adv-x="509" />
<glyph unicode="&#x28;C&#x29;" horiz-adv-x="1380" d="M78 758q0 399 156.5 590.5t463.5 191.5q301 0 451.5 -192.5t150.5 -589.5q0 -395 -154.5 -586.5t-447.5 -191.5q-301 0 -460.5 191t-159.5 587zM141 758q0 -360 142.5 -534.5t414.5 -174.5q266 0 402.5 172t136.5 537q0 362 -134.5 537t-404.5 175q-274 0 -415.5 -176 t-141.5 -536zM487 739v88q0 123 48.5 187.5t154.5 64.5q53 0 97 -17.5t79 -68.5v-49h-67q-23 39 -50.5 52.5t-58.5 13.5q-74 0 -99.5 -53.5t-25.5 -151.5v-45q0 -106 24.5 -171t98.5 -65q41 0 79 9.5t97 41.5v-51q-35 -25 -59.5 -40t-44 -24t-36.5 -12.5t-38 -3.5 q-59 0 -97 22.5t-60.5 62.5t-32 93.5t-9.5 116.5z" />
<glyph unicode="&#x28;R&#x29;" horiz-adv-x="1142" d="M131 993q0 527 449 527q436 0 436 -527q0 -276 -109.5 -403t-326.5 -127q-223 0 -336 130t-113 400zM172 993q0 -248 104.5 -368.5t303.5 -120.5q193 0 294 117.5t101 371.5q0 486 -395 486q-408 0 -408 -486zM434 733v539h166q72 0 97.5 -39t25.5 -111v-51 q0 -41 -19.5 -78t-52.5 -45l78 -166v-49h-53l-84 203h-94v-203h-64zM498 987h102q31 0 47.5 22.5t16.5 55.5v43q0 61 -17.5 86t-64.5 25h-84v-232z" />
<glyph horiz-adv-x="2048" />
<glyph horiz-adv-x="2048" />
<glyph unicode="&#xd;" horiz-adv-x="411" />
<glyph unicode=" "  horiz-adv-x="509" />
<glyph unicode="&#x09;" horiz-adv-x="509" />
<glyph unicode="&#xa0;" horiz-adv-x="509" />
<glyph unicode="!" horiz-adv-x="370" d="M78 1567h215l-29 -1125h-158zM109 0v213h155v-213h-155z" />
<glyph unicode="&#x22;" horiz-adv-x="516" d="M49 1630h152l-21 -553h-110zM313 1630h148l-15 -553h-116z" />
<glyph unicode="#" horiz-adv-x="968" d="M68 471v100h133l71 392h-147v102h168l84 455h100v-74l-69 -381h251l84 455h101v-74l-70 -381h127v-102h-147l-70 -392h160v-100h-180l-86 -471h-99v90l68 381h-250l-86 -471h-98v90l67 381h-112zM317 571h250l72 392h-252z" />
<glyph unicode="$" horiz-adv-x="888" d="M59 369v106h148q18 -82 77.5 -126t137.5 -44q123 0 178 49t55 135q0 72 -43 112t-107.5 67.5t-140 51t-140 60.5t-107.5 97.5t-43 162.5q0 129 69.5 201t235.5 84v195h113v-193q98 -6 173.5 -49t118.5 -119v-106h-147q-16 70 -71.5 105.5t-125.5 35.5q-35 0 -68.5 -6 t-61 -22.5t-45 -45t-17.5 -73.5q0 -68 43 -108t107.5 -67.5t140 -53t140 -65.5t107.5 -102.5t43 -165.5q0 -131 -77.5 -221t-259.5 -106v-158h-113v156q-106 6 -193.5 63t-126.5 150z" />
<glyph unicode="%" horiz-adv-x="1447" d="M76 1112v29q0 92 12 163.5t43 122t83 77t130 26.5q80 0 132 -26.5t83 -77t43 -122t12 -163.5v-29q0 -98 -9 -175t-38.5 -131t-83 -82t-139.5 -28t-138 28t-82 82t-39 131t-9 175zM195 1098q0 -143 26.5 -217t122.5 -74q90 0 121 67.5t31 194.5v72q0 135 -31 204.5 t-121 69.5t-119.5 -68.5t-29.5 -205.5v-43zM303 0v59l744 1461h104v-62l-743 -1458h-105zM831 395v29q0 92 12.5 163.5t43.5 122t83 77t130 26.5q80 0 132 -26.5t83 -77t43 -122t12 -163.5v-29q0 -98 -9 -175t-39 -131t-83 -81.5t-139 -27.5t-138.5 27.5t-82 81.5t-39 131 t-9.5 175zM950 381q0 -143 27 -217t123 -74q90 0 120.5 67.5t30.5 194.5v72q0 135 -30.5 204.5t-120.5 69.5t-120 -68.5t-30 -205.5v-43z" />
<glyph unicode="&#x26;" horiz-adv-x="1202" d="M74 399q0 86 20.5 151.5t58 120t91 98.5t118.5 85q-66 92 -106.5 179t-40.5 186q0 66 18.5 124t54.5 102t91 69.5t129 25.5q141 0 217 -73.5t76 -221.5q0 -82 -21.5 -144.5t-56.5 -111.5t-82 -87t-96 -71l325 -407q47 104 64.5 217t21.5 211h136q0 -147 -28 -291.5 t-87 -261.5l164 -203v-96h-105l-145 182q-70 -92 -167 -147t-232 -55q-109 0 -188 31.5t-130 87t-75.5 132t-24.5 168.5zM233 416q0 -135 64.5 -212t196.5 -77q104 0 177.5 47t125.5 121l-355 453q-90 -59 -149.5 -138.5t-59.5 -193.5zM348 1227q0 -72 31 -143.5t86 -149.5 q39 27 76 56.5t65.5 66.5t46 81t17.5 99q0 180 -162 180q-78 0 -119 -54t-41 -136z" />
<glyph unicode="'" horiz-adv-x="256" d="M49 1630h152l-19 -553h-112z" />
<glyph unicode="(" horiz-adv-x="643" d="M129 709q0 199 16.5 357.5t57.5 279t109.5 208.5t172.5 148l68 -103q-86 -53 -142.5 -137t-88 -195.5t-44 -252t-12.5 -305.5q0 -172 15.5 -315.5t51.5 -253t95 -186.5t150 -118l-62 -102q-106 45 -180 124t-120 197.5t-66.5 280.5t-20.5 373z" />
<glyph unicode=")" horiz-adv-x="643" d="M63 -164q88 41 148.5 118t96.5 186.5t51.5 253t15.5 315.5q0 166 -12.5 306t-44 251.5t-88 195.5t-142.5 137l68 103q104 -59 172.5 -147.5t109.5 -209t57.5 -279.5t16.5 -357q0 -211 -20.5 -373t-66.5 -280.5t-120 -197.5t-180 -124z" />
<glyph unicode="*" horiz-adv-x="866" d="M121 1364l39 113l233 -95l-20 248h133l-21 -250l238 95l37 -113l-248 -64l162 -192l-107 -76l-127 209l-135 -205l-104 76l161 188z" />
<glyph unicode="+" horiz-adv-x="1009" d="M74 678v131h360v362h131v-362h365v-131h-365v-365h-131v365h-360z" />
<glyph unicode="," horiz-adv-x="350" d="M115 -193v406h153v-74q0 -59 -9 -113.5t-22.5 -97.5t-30 -74.5t-28.5 -46.5h-63z" />
<glyph unicode="-" horiz-adv-x="569" d="M49 586v108h473v-108h-473z" />
<glyph unicode="." horiz-adv-x="378" d="M113 0v213h157v-213h-157z" />
<glyph unicode="/" horiz-adv-x="653" d="M37 0l473 1520h108v-54l-475 -1517h-106v51z" />
<glyph unicode="0" horiz-adv-x="1030" d="M86 727v66q0 193 11.5 334t55.5 233t129 136t232 44t232 -44t129.5 -136t55.5 -233.5t11 -333.5v-66q0 -195 -11 -335t-55.5 -232t-129 -136t-232.5 -44q-147 0 -232 44t-129 136t-55.5 232t-11.5 335zM279 739q0 -164 6 -276.5t29.5 -182t70.5 -100t129 -30.5t129 30.5 t70.5 99t30 181t6.5 276.5v37q0 172 -8.5 286t-33 183.5t-71.5 98t-123 28.5q-84 0 -131 -30.5t-69.5 -101.5t-28.5 -185.5t-6 -280.5v-33z" />
<glyph unicode="1" horiz-adv-x="546" d="M41 1305v161l283 58h122v-1524h-190v1346z" />
<glyph unicode="2" horiz-adv-x="944" d="M80 0v160q96 92 202.5 219t200.5 258q98 135 140.5 251t42.5 210q0 131 -46.5 202.5t-162.5 71.5q-72 0 -128.5 -46t-86.5 -126h-152v119q37 68 80 111t91 67.5t100.5 34.5t107.5 10q106 0 180 -30.5t118 -88t63.5 -138.5t19.5 -179q0 -125 -40 -233.5t-99 -202.5 q-33 -53 -81 -118t-103.5 -132.5t-114 -133t-111.5 -116.5h565v-170h-786z" />
<glyph unicode="3" d="M76 256v123h153q20 -111 90 -164t150 -53q125 0 188.5 76.5t63.5 205.5q0 55 -9.5 106.5t-35 91.5t-69.5 63.5t-111 23.5h-115v145h113q57 0 95 20.5t61.5 54.5t32.5 77t9 90q0 49 -11 96.5t-35.5 82t-65.5 56t-101 21.5q-61 0 -121.5 -43t-91.5 -135h-151v119 q68 127 167 178t210 51q104 0 174.5 -30.5t115.5 -85t64.5 -127t19.5 -156.5q0 -51 -9 -103.5t-30.5 -96.5t-56.5 -78t-86 -50q61 -18 102 -56t68 -89.5t38 -109.5t11 -118q0 -94 -26.5 -178t-81 -147.5t-138.5 -100t-200 -36.5q-59 0 -117.5 18t-110 54t-91.5 87t-62 117z " />
<glyph unicode="4" horiz-adv-x="929" d="M41 416v131l569 973h183v-949h90v-155h-90v-416h-181v416h-571zM219 571h393v662z" />
<glyph unicode="5" horiz-adv-x="976" d="M82 262v117h154q8 -53 31.5 -93t56 -68t71.5 -42t78 -14q129 0 191.5 95t62.5 249q0 94 -13.5 157.5t-38 102.5t-61 55.5t-82.5 16.5q-66 0 -139.5 -39t-165.5 -137l-123 51l48 807h679v-177h-530l-29 -477q43 37 76 62.5t65.5 41t71.5 22.5t95 7q70 0 130 -23.5 t105 -80.5t69.5 -151.5t24.5 -237.5q0 -111 -26.5 -207t-80.5 -167t-139 -111.5t-202 -40.5q-68 0 -132.5 22.5t-115.5 61t-86 90t-45 108.5z" />
<glyph unicode="6" horiz-adv-x="1019" d="M86 731q0 166 9 313.5t52 258t132.5 174t248.5 63.5q106 0 195.5 -47t153.5 -168v-123h-152q-29 92 -82 131t-119 39q-86 0 -136 -41t-75.5 -112.5t-33 -167t-7.5 -205.5q92 72 169 100.5t147 28.5q180 0 266 -106.5t86 -342.5v-45q0 -115 -18.5 -208t-66.5 -158.5 t-130 -101.5t-211 -36q-158 0 -244 54.5t-127 154t-49 237.5t-8 308zM276 639q0 -115 6.5 -206t30 -154.5t70.5 -96t129 -32.5q137 0 186.5 84.5t49.5 263.5v20q0 168 -57.5 235.5t-176.5 67.5q-66 0 -130.5 -30.5t-107.5 -83.5v-68z" />
<glyph unicode="7" horiz-adv-x="884" d="M63 1348v172h779v-127q-68 -127 -131.5 -297t-119.5 -357.5t-103.5 -378t-79.5 -360.5h-185v111q31 143 74 303.5t97.5 321.5t119 317.5t137.5 294.5h-588z" />
<glyph unicode="8" horiz-adv-x="1015" d="M80 424q0 72 20.5 136.5t55 115.5t81 87t97.5 52q-100 27 -158.5 114t-58.5 216q0 92 18.5 164.5t63.5 125t119.5 80t189.5 27.5q106 0 181 -26.5t121 -76.5t66.5 -121t20.5 -159q0 -135 -58.5 -225t-162.5 -123q45 -18 92 -54t84 -85t60.5 -110.5t23.5 -129.5 q0 -123 -25.5 -210t-78 -141t-133.5 -79t-191 -25q-223 0 -325.5 102.5t-102.5 344.5zM264 440q0 -166 58.5 -234.5t181.5 -68.5q129 0 184 69.5t55 229.5q0 66 -20.5 120t-54 94t-77.5 67t-89 37q-47 -10 -90 -37t-76 -68t-52.5 -94t-19.5 -115zM301 1167q0 -127 43 -202.5 t164 -102.5q123 25 167 100.5t44 204.5q0 96 -45 159t-164 63t-164 -62.5t-45 -159.5z" />
<glyph unicode="9" horiz-adv-x="1019" d="M80 991v45q0 115 18.5 208t66.5 158.5t130 101.5t211 36q156 0 243 -54t128 -153.5t49 -239t8 -307.5q0 -166 -9.5 -313t-52.5 -258t-132 -174.5t-248 -63.5q-111 0 -198 46.5t-151 169.5v122h152q29 -92 82 -131t119 -39q86 0 136 41t75.5 113t33 167t7.5 206 q-92 -72 -169 -100.5t-147 -28.5q-180 0 -266 106.5t-86 341.5zM272 999q0 -84 14.5 -142t43 -94t72.5 -51.5t104 -15.5q66 0 130 31t107 84v68q0 115 -6 206t-29.5 153t-70.5 96t-129 34q-70 0 -115 -21.5t-71.5 -64.5t-38 -108.5t-11.5 -153.5v-21z" />
<glyph unicode=":" horiz-adv-x="382" d="M115 0v213h155v-213h-155zM115 911v213h155v-213h-155z" />
<glyph unicode=";" horiz-adv-x="378" d="M115 911v213h157v-213h-157zM121 -193v406h153v-74q0 -59 -9 -113.5t-22.5 -97.5t-28.5 -74.5t-28 -46.5h-65z" />
<glyph unicode="&#x3c;" horiz-adv-x="884" d="M88 680v94l703 481v-147l-539 -381l539 -379v-147z" />
<glyph unicode="=" horiz-adv-x="1093" d="M109 479v129h897v-129h-897zM109 918v129h897v-129h-897z" />
<glyph unicode="&#x3e;" horiz-adv-x="894" d="M96 201v147l541 379l-541 381v147l703 -481v-94z" />
<glyph unicode="?" horiz-adv-x="851" d="M51 1229v112q57 123 146.5 180.5t236.5 57.5q100 0 170 -27.5t113 -73.5t62.5 -107.5t19.5 -127.5q0 -84 -25.5 -145.5t-65.5 -109.5t-85 -88t-85 -79t-66 -82t-26 -96q0 -86 13 -174h-140q-20 47 -29 94t-9 90q0 72 24.5 124t61 95t79.5 80t80 78t61.5 89t24.5 116 t-41 117t-141 49q-104 0 -154.5 -43t-76.5 -129h-148zM305 0v213h158v-213h-158z" />
<glyph unicode="@" horiz-adv-x="1165" d="M86 655q0 221 15.5 370t70.5 239t160.5 129t288.5 39q129 0 214 -25t136 -77t73.5 -134t26.5 -195v-786h-94q-8 16 -13.5 35.5t-7.5 40.5q-63 -43 -110 -62.5t-94 -19.5q-115 0 -179.5 27.5t-98.5 80t-42 127t-8 166.5q0 111 7 197t40 146.5t99.5 92t185.5 31.5 q23 0 40 -2t36.5 -7t47 -14.5t70.5 -25.5q-4 74 -21.5 127t-55 88t-99 51.5t-153.5 16.5q-135 0 -216 -29t-124 -102.5t-56.5 -201.5t-13.5 -327q0 -240 10 -391t52 -237t128 -118t240 -32q129 0 214 41t136 100h78v-102q-72 -72 -175 -118t-251 -46q-203 0 -315.5 45 t-167 150.5t-64.5 279.5t-10 432zM553 655q0 -82 5 -145.5t27.5 -107.5t67.5 -66.5t123 -22.5q20 0 35.5 2t34 8.5t41 18.5t57.5 33v547q-31 14 -52.5 22t-41 12.5t-38.5 5.5t-46 1q-74 0 -116 -19.5t-63.5 -57.5t-27.5 -96.5t-6 -134.5z" />
<glyph unicode="A" horiz-adv-x="991" d="M43 0v147l332 1373h231l342 -1373v-147h-176l-72 297h-419l-66 -297h-172zM305 459h371l-189 801z" />
<glyph unicode="B" horiz-adv-x="1009" d="M96 0v1520h400q115 0 188.5 -26t115.5 -74t58 -119.5t16 -163.5v-78q0 -72 -26.5 -134.5t-83.5 -84.5q41 -10 75.5 -40t59.5 -71t38 -91t13 -101v-99q0 -98 -17.5 -179t-63.5 -138.5t-124.5 -89t-203.5 -31.5h-445zM287 168h243q72 0 117 20.5t70.5 58.5t35 92t9.5 124 v14q0 135 -50 197.5t-137 62.5h-288v-569zM287 895h276q70 0 100.5 51t30.5 125v31q0 127 -41 187.5t-164 60.5h-202v-455z" />
<glyph unicode="C" horiz-adv-x="1007" d="M80 543v454q0 266 116.5 406.5t364.5 140.5q111 0 215.5 -46t179.5 -175v-123h-163q-47 96 -111 132t-129 36q-154 0 -217.5 -100.5t-63.5 -317.5v-360q0 -88 13.5 -164t44 -132t82 -88t127.5 -32q45 0 73.5 2t61.5 8t77 19.5t117 36.5l74 22v-129l-94 -47 q-57 -29 -100 -49.5t-79 -32.5t-68 -18t-69 -6q-121 0 -205.5 39.5t-140 113.5t-81 177.5t-25.5 232.5z" />
<glyph unicode="D" horiz-adv-x="1060" d="M96 0v1520h510q104 0 176 -42t116 -115t63.5 -169t19.5 -207v-409q0 -145 -15.5 -253t-57.5 -180.5t-114.5 -108.5t-187.5 -36h-510zM289 172h270q68 0 112 22.5t69.5 71.5t35.5 128t10 194v395q0 180 -51 273.5t-184 93.5h-262v-1178z" />
<glyph unicode="E" horiz-adv-x="884" d="M96 0v1520h711v-172h-518v-459h504v-174h-504v-545h522v-170h-715z" />
<glyph unicode="F" horiz-adv-x="849" d="M96 0v1520h723v-172h-528v-486h487v-172h-487v-690h-195z" />
<glyph unicode="G" horiz-adv-x="1044" d="M80 543v454q0 266 116.5 406.5t364.5 140.5q55 0 110.5 -10t107.5 -35.5t99.5 -69t84.5 -106.5v-123h-164q-47 94 -115 131t-131 37q-160 0 -220.5 -103.5t-60.5 -314.5v-360q0 -88 12.5 -165t43 -133t81 -89t123.5 -33q53 0 108.5 17.5t158.5 64.5v430l-219 31v110h395 v-671q-98 -51 -165 -85t-116 -53.5t-87 -26.5t-81 -7q-119 0 -202.5 39.5t-138 113.5t-80 177.5t-25.5 232.5z" />
<glyph unicode="H" horiz-adv-x="1036" d="M96 0v1520h195v-648h459v648h190v-1520h-190v702h-459v-702h-195z" />
<glyph unicode="I" horiz-adv-x="403" d="M106 0v1520h191v-1520h-191z" />
<glyph unicode="J" horiz-adv-x="745" d="M20 74v133l78 -27q20 -8 53 -14q25 -4 57 -4h23q74 0 119 11t69.5 44t32 88t7.5 146v1069h190v-1117q0 -125 -15.5 -206.5t-50 -130t-93 -67.5t-144.5 -19q-68 0 -129 11t-133 50z" />
<glyph unicode="K" horiz-adv-x="987" d="M96 0v1520h193v-623h153l326 623h152v-123l-312 -537l338 -715v-145h-178l-324 743h-155v-743h-193z" />
<glyph unicode="L" horiz-adv-x="788" d="M96 0v1520h195v-1350h469v-170h-664z" />
<glyph unicode="M" horiz-adv-x="1456" d="M92 0v1520h266l379 -1227l369 1227h258v-1520h-174v1223l-356 -1192h-197l-373 1190v-1221h-172z" />
<glyph unicode="N" horiz-adv-x="1122" d="M94 0v1520h180l584 -1137v1137h168v-1520h-182l-580 1110v-1110h-170z" />
<glyph unicode="O" horiz-adv-x="1073" d="M80 618v283q0 131 14.5 248t61.5 204t137 137t244 50t243.5 -50t137 -137t61.5 -204t14 -248v-283q0 -129 -14 -245.5t-61.5 -203.5t-137.5 -138t-243 -51q-154 0 -244 51t-137 138t-61.5 203.5t-14.5 245.5zM276 645q0 -121 8.5 -214t35 -156.5t78 -95.5t139.5 -32 t139 32t77.5 95.5t35 156.5t8.5 214v229q0 123 -8.5 215.5t-35 155t-77.5 94t-139 31.5t-139.5 -31.5t-78 -94t-35 -155t-8.5 -215.5v-229z" />
<glyph unicode="P" horiz-adv-x="974" d="M96 0v1520h418q211 0 315.5 -87t104.5 -290v-150q0 -94 -21.5 -172t-70.5 -134t-129 -87t-199 -31h-225v-569h-193zM289 731h147q88 0 148.5 14.5t95.5 48t50 89t15 137.5v35q0 82 -11 139t-39.5 92t-78 51.5t-122.5 16.5h-205v-623z" />
<glyph unicode="Q" horiz-adv-x="1073" d="M80 618v283q0 131 14.5 248t61.5 204t137 137t244 50t243.5 -50t137 -137t61.5 -204t14 -248v-283q0 -123 -12 -233.5t-53 -194.5t-119 -137t-209 -63v-178q0 -61 20.5 -92t75.5 -31h97v-138h-160q-47 0 -78 17.5t-49.5 46.5t-25.5 67.5t-7 81.5v226q-131 8 -209 61 t-119 138t-53 196t-12 233zM276 645q0 -121 7.5 -214t34 -156.5t77.5 -95.5t142 -32q88 0 139 32t77.5 95.5t35 156.5t8.5 214v229q0 121 -8.5 214.5t-35 156t-77.5 94t-139 31.5q-90 0 -141.5 -31.5t-78 -94t-34 -156t-7.5 -214.5v-229z" />
<glyph unicode="R" horiz-adv-x="999" d="M96 0v1520h488q104 0 173.5 -29t109.5 -81t56.5 -127t16.5 -169v-199q0 -123 -42 -208.5t-140 -128.5l182 -426v-152h-162l-203 541h-286v-541h-193zM289 700h162q102 0 163.5 12.5t93 51.5t41 108.5t9.5 184.5q0 78 -10.5 133t-37 91t-69.5 53.5t-111 17.5h-241v-652z " />
<glyph unicode="S" horiz-adv-x="944" d="M59 268v115h150q23 -98 81 -151.5t175 -53.5q66 0 112 18.5t74.5 52.5t41 79t12.5 100q0 82 -29 131t-82 86q-61 43 -124.5 75t-121 60.5t-108 60t-86 76t-57 105.5t-21.5 149q0 180 97 274.5t323 94.5q139 0 242.5 -57.5t131.5 -157.5v-123h-153q-12 76 -71.5 117 t-147.5 41q-39 0 -79 -4t-73 -23.5t-54.5 -59.5t-21.5 -110q0 -84 45 -134t114 -87t148.5 -72.5t148.5 -92t114 -143.5t45 -226q0 -86 -28 -164t-82 -136.5t-136 -93t-188 -34.5q-84 0 -151 23.5t-116 62t-80.5 91t-44.5 111.5z" />
<glyph unicode="T" horiz-adv-x="888" d="M29 1348v172h831v-172h-319v-1348h-193v1348h-319z" />
<glyph unicode="U" horiz-adv-x="1048" d="M88 483v1037h193v-985q0 -104 11 -178t39.5 -120.5t75 -66.5t117.5 -20q70 0 117 20t75.5 66.5t40 117t11.5 172.5v994h190v-1037q0 -117 -22.5 -210t-72.5 -158.5t-134 -101.5t-207 -36q-227 0 -330.5 129.5t-103.5 376.5z" />
<glyph unicode="V" horiz-adv-x="991" d="M43 1372v148h176l285 -1256l272 1256h172v-148l-332 -1372h-231z" />
<glyph unicode="W" horiz-adv-x="1591" d="M43 1374v146h180l228 -1268l231 1268h233l230 -1268l231 1268h172v-146l-288 -1374h-232l-233 1255l-236 -1255h-233z" />
<glyph unicode="X" horiz-adv-x="1036" d="M59 0v158l351 618l-318 592v152h152l293 -576l301 576h135v-160l-332 -582l334 -637v-141h-160l-305 600l-317 -600h-134z" />
<glyph unicode="Y" horiz-adv-x="985" d="M39 1393v127h168l289 -750l288 750h162v-127l-358 -820v-573h-191v569z" />
<glyph unicode="Z" horiz-adv-x="925" d="M51 0v133l572 1215h-535v172h756v-129l-568 -1221h592v-170h-817z" />
<glyph unicode="[" horiz-adv-x="628" d="M147 -266v1968h412v-119h-278v-1730h278v-119h-412z" />
<glyph unicode="\" horiz-adv-x="653" d="M35 1466v54h106l475 -1520v-51h-108z" />
<glyph unicode="]" horiz-adv-x="622" d="M70 -147h278v1730h-278v119h413v-1968h-413v119z" />
<glyph unicode="^" horiz-adv-x="849" d="M61 807l291 721h137l302 -721h-138l-233 577l-230 -577h-129z" />
<glyph unicode="_" horiz-adv-x="870" d="M0 -229h872v-109h-872v109z" />
<glyph unicode="`" horiz-adv-x="630" d="M127 1376v115l436 -105v-71z" />
<glyph unicode="a" horiz-adv-x="952" d="M53 381q0 154 67.5 227.5t221.5 73.5h332q0 84 -8.5 141.5t-32 92t-67.5 49t-113 14.5q-68 0 -130.5 -15.5t-150.5 -41.5l-61 -19v123l57 29q55 27 99 46t82 30.5t74 17.5t75 6q100 0 168.5 -27.5t111.5 -87t61.5 -154.5t18.5 -233v-518q0 -31 25 -31h16v-104h-76 q-68 0 -99.5 37t-35.5 96q-78 -49 -127 -77.5t-84 -43t-62.5 -18.5t-62.5 -4q-158 0 -228.5 106.5t-70.5 284.5zM233 381q0 -236 152 -236q27 0 51.5 3.5t55 13.5t72.5 30.5t108 55.5v315h-279q-86 0 -123 -44t-37 -138z" />
<glyph unicode="b" horiz-adv-x="966" d="M94 57v1336l41 237h146v-557q47 23 80.5 38t58 25.5t44 14.5t38.5 4q141 0 220 -38t119 -110.5t49 -178t9 -240.5q0 -111 -7 -218.5t-45 -193.5t-117 -138t-222 -52q-29 0 -54.5 1t-56 6t-72.5 13t-104 23zM281 178l49 -10q40 -8 62 -16q18 -6 31 -5h7q100 0 157.5 24 t85 76t34 134t6.5 197q0 125 -8.5 205.5t-36 127.5t-80.5 65.5t-146 18.5q-10 0 -19 -2t-25.5 -6t-44 -13t-72.5 -24v-772z" />
<glyph unicode="c" horiz-adv-x="911" d="M78 532v144q0 231 97 355t319 124q117 0 209 -36t143 -128v-112h-146q-27 70 -83 94t-123 24q-72 0 -118 -23.5t-73 -69.5t-37 -113.5t-10 -153.5v-72q0 -94 10 -170t36 -129t72 -81.5t118 -28.5q27 0 49 1t52 7t74 18.5t111 32.5l62 18v-124l-39 -21q-72 -37 -119 -58.5 t-81 -32.5t-60.5 -14t-53.5 -3q-123 0 -201.5 40.5t-124.5 114.5t-64.5 175.5t-18.5 221.5z" />
<glyph unicode="d" horiz-adv-x="966" d="M70 588q0 135 9 240.5t49 178t119 110.5t220 38q16 0 31.5 -2t39 -10t58.5 -24.5t92 -45.5v320l41 237h145v-1495q0 -31 25 -31h16v-104h-139q-35 0 -51 19.5t-20 50.5q-59 -29 -98.5 -45.5t-68 -23.5t-53 -9t-55.5 -2q-125 0 -196.5 52t-108.5 136t-46 191.5t-9 218.5z M256 584q0 -106 6 -186.5t30.5 -132.5t76 -78.5t141.5 -26.5q23 0 62.5 10t115.5 43v737q-43 14 -70.5 23.5t-45 13.5t-30 6t-26.5 2q-90 0 -141 -19.5t-78 -66.5t-34 -127t-7 -198z" />
<glyph unicode="e" horiz-adv-x="944" d="M78 532v144q0 233 95 356t308 123q117 0 192 -37t119 -103.5t60 -158.5t16 -203v-123h-608q0 -59 6 -124.5t29.5 -121t70 -92t126.5 -36.5q27 0 49 1t52 7t74 18.5t111 32.5l62 18v-124l-39 -21q-72 -37 -119 -58.5t-81 -32.5t-60.5 -14t-53.5 -3q-125 0 -204.5 43 t-124.5 118.5t-62.5 176t-17.5 214.5zM264 651h424v35q0 160 -44 243t-165 83q-111 0 -163 -74t-52 -240v-47z" />
<glyph unicode="f" horiz-adv-x="591" d="M33 995v140h96v237q0 55 8 102.5t29.5 82t58.5 54t97 19.5h235v-151h-166q-43 0 -59.5 -31t-16.5 -94v-219h238v-140h-238v-995h-186v995h-96z" />
<glyph unicode="g" horiz-adv-x="966" d="M70 573q0 106 8 211t47 188t118 133t218 50q27 0 52.5 -2t57 -6t73.5 -12.5t104 -22.5l126 -29v-979q0 -106 -15 -205.5t-59 -176t-123 -124t-206 -47.5q-29 0 -54.5 3.5t-60 14.5t-82 32.5t-116.5 58.5l-39 21v124l61 -18q68 -20 112 -32.5t73.5 -18.5t52 -7t49.5 -1 q76 0 120 31.5t67.5 84t29.5 117t6 129.5v33q-66 -27 -104.5 -41t-60 -21.5t-30 -8.5t-14.5 -1q-145 0 -227 35t-123 101.5t-51 164t-10 221.5zM256 580q0 -113 8 -185.5t37 -115.5t86 -59.5t154 -16.5q6 0 15 1t25.5 4t41 10t65.5 20v725l-49 10q-55 10 -82 12t-37 8 q-92 0 -144 -24.5t-79 -75.5t-34 -129t-7 -184z" />
<glyph unicode="h" horiz-adv-x="983" d="M94 0v1393l41 237h146v-549q61 27 99 41.5t59.5 21.5t31.5 9t18 2q119 0 199 -22.5t127 -72.5t66.5 -134t19.5 -207v-719h-186v719q0 76 -9.5 129t-37 86t-76.5 47t-131 14q-16 0 -30.5 -1t-34 -5t-47 -11t-68.5 -20v-958h-187z" />
<glyph unicode="i" horiz-adv-x="389" d="M100 78v1057h187v-996q0 -35 24 -35h21v-104h-162q-70 0 -70 78zM102 1446v186h185v-186h-185z" />
<glyph unicode="j" horiz-adv-x="385" d="M-70 -297h97q43 0 59 30.5t16 94.5v1307h187v-1325q0 -55 -8.5 -102.5t-30 -82.5t-59 -54.5t-95.5 -19.5h-166v152zM102 1446v186h187v-186h-187z" />
<glyph unicode="k" horiz-adv-x="933" d="M96 0v1393l41 237h146v-919h176l258 424h145v-95l-248 -389l273 -536v-115h-170l-260 563h-174v-563h-187z" />
<glyph unicode="l" horiz-adv-x="378" d="M94 78v1315l41 237h146v-1491q0 -35 24 -35h21v-104h-162q-70 0 -70 78z" />
<glyph unicode="m" horiz-adv-x="1472" d="M92 0v1135h154l10 -64q70 31 113 48.5t66.5 24.5t34.5 9t22 2q104 0 172.5 -27.5t109.5 -78.5q70 33 118 53t80 32.5t51 16.5t32 4q117 0 183.5 -28.5t101 -75.5t44 -108.5t9.5 -125.5v-817h-187v817q0 49 -8 84t-31.5 55.5t-65.5 29.5t-110 9q-20 0 -59 -7t-111 -34 q18 -61 19 -135v-819h-187v817q0 100 -42 139t-154 39q-14 0 -28.5 -1t-34 -4t-47.5 -11t-68 -21v-958h-187z" />
<glyph unicode="n" d="M92 0v1135h154l10 -64q72 31 114 48.5t65.5 24.5t33.5 9t18 2q143 0 226.5 -29.5t125.5 -86t52 -137.5t10 -183v-719h-186v719q0 76 -6.5 129t-32 86t-77.5 47t-144 14q-14 0 -27.5 -1t-33 -5t-47.5 -11t-68 -20v-958h-187z" />
<glyph unicode="o" d="M78 526v82q0 125 14 226.5t57.5 172t124 109.5t215.5 39t217 -39t125 -109.5t57.5 -172t14.5 -226.5v-82q0 -125 -14.5 -226t-57.5 -172t-124.5 -109.5t-217.5 -38.5q-135 0 -215.5 38.5t-124 109.5t-57.5 172t-14 226zM264 547q0 -100 7.5 -177t31 -128.5t68.5 -78 t118 -26.5q74 0 119 26.5t68.5 78t31 128t7.5 177.5v98q0 84 -9.5 149.5t-34 109.5t-68.5 67.5t-114 23.5q-74 0 -118.5 -25.5t-68 -76.5t-31 -128t-7.5 -177v-41z" />
<glyph unicode="p" horiz-adv-x="968" d="M96 -449v1584h154q4 -16 6 -36t4 -46q53 29 88 47t62.5 28.5t52 13.5t59.5 3q139 0 216 -52.5t113 -136.5t43 -191.5t7 -217.5q0 -135 -9 -240.5t-46 -178.5t-110.5 -110.5t-205.5 -37.5q-29 0 -51 2t-49 10t-60.5 24.5t-86.5 42.5v-508h-187zM283 203q43 -20 70.5 -32.5 t48 -20t38 -9.5t39.5 -2q78 0 125 18.5t71.5 65.5t32 126t7.5 202q0 109 -6.5 188.5t-32 132t-75.5 78t-138 25.5q-20 0 -34.5 -2t-33 -7t-44 -14.5t-68.5 -23.5v-725z" />
<glyph unicode="q" horiz-adv-x="972" d="M70 553q0 111 7 218.5t45 193.5t116.5 138t222.5 52q27 0 52.5 -2t57 -6t73.5 -12.5t104 -22.5l126 -29v-1532h-186v517q-47 -23 -81 -39.5t-58.5 -25.5t-44 -13t-37.5 -4q-141 0 -220 37.5t-119 110.5t-49 178.5t-9 240.5zM256 563q0 -125 7 -206t35 -128t82 -65.5 t146 -18.5q8 0 18.5 1t27 5.5t44 13.5t72.5 25v773l-49 10q-55 10 -82 12t-37 8q-92 0 -145 -25.5t-80 -77.5t-33 -134t-6 -193z" />
<glyph unicode="r" horiz-adv-x="774" d="M92 0v1135h154l10 -78q74 31 125 48t91 26.5t77 11.5t86 2q25 0 47.5 -2t42.5 -6v-181h-121q-12 14 -36.5 21.5t-100.5 7.5q-37 0 -81 -10t-107 -31v-944h-187z" />
<glyph unicode="s" horiz-adv-x="903" d="M70 195v106h145q20 -82 79.5 -126t137.5 -44q47 0 89 7t75 26.5t51.5 55.5t18.5 95q0 55 -29 92t-71 62t-88 40t-83 30q-147 57 -229 130.5t-82 196.5q0 137 86 213t283 76q117 0 204.5 -42t135.5 -128v-106h-148q-16 70 -70.5 105.5t-123.5 35.5q-37 0 -73 -6 t-62.5 -21.5t-43 -45t-16.5 -75.5q0 -68 43 -106.5t107.5 -67t139.5 -54.5t139.5 -66.5t107.5 -107.5t43 -175q0 -139 -98.5 -227t-315.5 -88q-57 0 -111.5 15t-101.5 43t-83 67.5t-56 89.5z" />
<glyph unicode="t" horiz-adv-x="643" d="M33 995v140h172l55 350h125v-350h223v-140h-223v-995h-186v995h-166z" />
<glyph unicode="u" horiz-adv-x="960" d="M80 322v813h184v-797q0 -109 56.5 -150t160.5 -41t160.5 41t56.5 150v797h183v-813q0 -184 -102.5 -263t-301.5 -79t-298 78.5t-99 263.5z" />
<glyph unicode="v" horiz-adv-x="950" d="M51 1022v113h166l262 -934l256 934h162v-113l-311 -1022h-217z" />
<glyph unicode="w" horiz-adv-x="1495" d="M51 1024v111h168l211 -942l211 942h219l211 -942l213 942h160v-111l-266 -1024h-215l-218 934l-213 -934h-217z" />
<glyph unicode="x" horiz-adv-x="921" d="M53 0v127l303 453l-272 436v119h145l246 -426l262 426h131v-127l-290 -426l294 -469v-113h-149l-272 446l-267 -446h-131z" />
<glyph unicode="y" horiz-adv-x="983" d="M51 1022v113h178l269 -899l270 899h162v-113l-494 -1471h-184l143 437z" />
<glyph unicode="z" horiz-adv-x="851" d="M49 0v125l492 852h-463v158h692v-123l-489 -852h516v-160h-748z" />
<glyph unicode="{" horiz-adv-x="653" d="M68 664v133h73q41 0 50.5 53t9.5 158v405q0 82 22.5 138.5t59 89t83 47t93.5 14.5h114v-121h-104q-29 0 -53.5 -11t-43 -41t-29.5 -79t-11 -123v-377q0 -94 -20.5 -146t-65.5 -75q51 -27 68.5 -80t17.5 -157v-400q0 -76 11 -122t29.5 -71.5t43 -34.5t53.5 -9h104v-121 h-114q-45 0 -91 14t-83 49t-60.5 93.5t-23.5 148.5v412q0 111 -11.5 162t-48.5 51h-73z" />
<glyph unicode="|" horiz-adv-x="698" d="M283 -354v1982h133v-1982h-133z" />
<glyph unicode="}" horiz-adv-x="665" d="M80 -145h104q27 0 52.5 9t44 34.5t30 71.5t11.5 122v400q0 104 17 157t69 80q-45 23 -65.5 75t-20.5 146v377q0 74 -11.5 123t-30 79t-44 41t-52.5 11h-104v121h115q47 0 93 -14.5t83 -47t59.5 -89t22.5 -138.5v-405q0 -104 9 -157.5t50 -53.5h74v-133h-74 q-37 0 -48 -51.5t-11 -161.5v-412q0 -90 -23.5 -148.5t-60.5 -93.5t-83 -49t-91 -14h-115v121z" />
<glyph unicode="~" horiz-adv-x="903" d="M90 639v102q37 41 88 65.5t105 24.5q51 0 95 -12t84 -26.5t76.5 -26.5t77.5 -12q25 0 45.5 3t43 12t49 25.5t61.5 41.5v-101q-94 -88 -199 -88q-49 0 -90 12.5t-78.5 26.5t-75.5 26.5t-81 12.5q-25 0 -44.5 -3t-42 -12.5t-50 -26.5t-64.5 -44z" />
<glyph unicode="&#xa1;" horiz-adv-x="499" d="M129 -287l29 1125h158l28 -1125h-215zM158 1067v213h155v-213h-155z" />
<glyph unicode="&#xa2;" horiz-adv-x="901" d="M63 715v143q0 217 84 339t275 136v187h115v-185q86 -4 162.5 -41t134.5 -118v-113h-146q-37 66 -93 91.5t-116 25.5q-70 0 -115 -23.5t-71.5 -70t-37.5 -113t-11 -154.5v-71q0 -92 10 -168t35.5 -130.5t72 -83t117.5 -28.5q31 0 58.5 3t61.5 12t76 24.5t99 38.5l51 20 v-145l-51 -33q-74 -47 -131 -66.5t-106 -23.5v-168h-115v166q-106 8 -175 52t-110 116t-57.5 169t-16.5 212z" />
<glyph unicode="&#xa3;" horiz-adv-x="978" d="M45 193q0 82 50 132t128 50q49 0 91 -10.5t81 -26.5q-2 86 -24.5 170t-59.5 170h-202v100h155q-37 76 -67.5 169t-30.5 233q0 78 20.5 144.5t63.5 114.5t110.5 75.5t163.5 27.5q115 0 202 -43t155 -164v-121h-142q-35 86 -86 122t-118 36q-53 0 -91 -17.5t-61 -46 t-33 -66.5t-10 -81q0 -115 31.5 -205t70.5 -178h306v-100h-265q29 -72 48.5 -153t19.5 -181q0 -47 -12 -102q39 -29 68.5 -49.5t58 -33t59.5 -18.5t72 -6h96v-135h-55q-92 0 -174 22.5t-170 96.5q-35 -59 -91.5 -99t-148.5 -40q-104 0 -156.5 57t-52.5 156zM158 182 q0 -35 20.5 -55.5t73.5 -20.5q59 0 89 31t42 78q-31 23 -66.5 37t-80.5 14q-78 0 -78 -84z" />
<glyph unicode="&#xa5;" horiz-adv-x="960" d="M70 356v103h329v241h-329v105h297l-297 625v90h118l291 -643l293 643h119v-90l-301 -625h301v-105h-332v-241h332v-103h-332v-356h-160v356h-329z" />
<glyph unicode="&#xa6;" horiz-adv-x="698" d="M283 -354v872h133v-872h-133zM283 856v772h133v-772h-133z" />
<glyph unicode="&#xa8;" horiz-adv-x="718" d="M96 1303v233h144v-233h-144zM475 1303v233h143v-233h-143z" />
<glyph unicode="&#xaa;" horiz-adv-x="776" d="M78 889q0 106 48 161.5t159 55.5h250q0 74 -5.5 123t-21.5 78.5t-48 42t-87 12.5q-47 0 -108.5 -9.5t-143.5 -35.5v74q98 49 163.5 68.5t102.5 19.5q90 0 143.5 -21.5t82 -70t36.5 -124t8 -182.5v-370q0 -23 11.5 -30t25.5 -7v-62h-41q-59 0 -81.5 31t-26.5 96 q-66 -45 -107 -71.5t-67.5 -41t-44 -18.5t-33.5 -4q-113 0 -164 78t-51 207zM199 889q0 -170 110 -170q18 0 34.5 2t39.5 11t58.5 26.5t93.5 48.5v227h-209q-68 0 -97.5 -36.5t-29.5 -108.5z" />
<glyph unicode="&#xab;" horiz-adv-x="882" d="M49 645l334 424l76 -72l-266 -352l266 -348l-76 -74zM428 645l332 424l74 -72l-265 -352l265 -348l-74 -74z" />
<glyph unicode="&#xad;" horiz-adv-x="569" d="M49 586v108h473v-108h-473z" />
<glyph unicode="&#xaf;" horiz-adv-x="727" d="M96 1382v99h531v-99h-531z" />
<glyph unicode="&#xb0;" horiz-adv-x="565" d="M78 1288q0 49 11 91t36 73t63 49.5t93 18.5t94 -18.5t63.5 -49.5t35.5 -73t11 -91q0 -47 -11 -89t-35.5 -73.5t-63.5 -50t-94 -18.5t-93 18.5t-63 49t-36 72.5t-11 91zM166 1288q0 -59 26.5 -101t88.5 -42q63 0 89.5 42t26.5 101t-25 101.5t-91 42.5q-61 0 -88 -42 t-27 -102z" />
<glyph unicode="&#xb2;" horiz-adv-x="645" d="M86 614v99q39 41 98.5 108.5t114.5 146.5t95 161.5t40 154.5q0 145 -115 146q-39 0 -70.5 -12.5t-64.5 -59.5h-92v76q53 70 106.5 88t120.5 18q129 0 179.5 -70.5t50.5 -181.5q0 -78 -31 -156.5t-78 -153.5t-104 -141.5t-109 -115.5h332v-107h-473z" />
<glyph unicode="&#xb3;" horiz-adv-x="671" d="M86 739v76h96q20 -49 57 -74.5t83 -25.5q74 0 110.5 50t36.5 128q0 59 -36 107.5t-95 48.5h-82v92h80q57 0 87 49t30 113q0 51 -27 91t-96 40q-35 0 -66 -14.5t-61 -61.5h-94v76q53 70 107 88t120 18q123 0 174 -64.5t51 -156.5q0 -72 -29.5 -133.5t-85.5 -83.5 q66 -23 102 -83.5t36 -125.5q0 -59 -15.5 -112.5t-48.5 -93.5t-84 -62.5t-121 -22.5q-72 0 -133 38t-96 99z" />
<glyph unicode="&#xb4;" horiz-adv-x="630" d="M86 1315v71l434 105v-115z" />
<glyph unicode="&#xb6;" horiz-adv-x="935" d="M80 1272q0 49 13 94t41 79t71 54.5t102 20.5h545v-45l-61 -80v-1680h-134v1688h-247v-1577q0 -47 -17.5 -79t-60.5 -32h-146v111h64q14 0 19 7t5 30v1169q-104 18 -149 83t-45 157z" />
<glyph unicode="&#xb7;" horiz-adv-x="354" d="M96 662v212h158v-212h-158z" />
<glyph unicode="&#xb8;" horiz-adv-x="407" d="M96 -377q72 2 101.5 23.5t29.5 70.5q0 47 -30.5 68.5t-77.5 24.5l22 190h66l-14 -143q49 -8 85.5 -41t36.5 -105q0 -86 -57 -121.5t-162 -38.5v72z" />
<glyph unicode="&#xb9;" horiz-adv-x="393" d="M86 1391v104l141 33h78v-914h-119v801z" />
<glyph unicode="&#xba;" horiz-adv-x="782" d="M84 1004v67q0 92 10 168t43 129t92.5 82t157.5 29q100 0 161.5 -29t94.5 -82t43 -129t10 -168v-67q0 -92 -10 -167t-43 -129.5t-94.5 -83t-161.5 -28.5q-98 0 -157.5 28.5t-92.5 83t-43 129t-10 167.5zM209 1022q0 -80 6 -140.5t24.5 -101.5t53.5 -61.5t94 -20.5t95 20.5 t55.5 61.5t25.5 101.5t6 140.5v31q0 170 -36.5 246.5t-145.5 76.5q-59 0 -94 -20.5t-53.5 -60.5t-24.5 -100t-6 -140v-33z" />
<glyph unicode="&#xbb;" horiz-adv-x="880" d="M49 297l262 348l-262 352l76 72l332 -424l-332 -422zM426 297l260 348l-260 352l76 72l329 -424l-329 -422z" />
<glyph unicode="&#xbc;" horiz-adv-x="1441" d="M86 1391v104l141 33h78v-914h-119v801zM264 -20l793 1552h88v-78l-791 -1552h-90v78zM852 190v84l336 582h117v-574h53v-92h-53v-246h-113v246h-340zM965 282h227v398z" />
<glyph unicode="&#xbd;" horiz-adv-x="1587" d="M86 1391v104l141 33h78v-914h-119v801zM266 -20l793 1552h88v-78l-791 -1552h-90v78zM1028 43q39 41 98.5 108.5t114.5 146.5t95 161.5t40 154.5q0 145 -115 146q-39 0 -70.5 -12.5t-64.5 -59.5h-92v76q53 70 106.5 88t120.5 18q129 0 179.5 -70.5t50.5 -181.5 q0 -78 -31 -156.5t-78 -153.5t-104 -141.5t-109 -115.5h332v-107h-473v99z" />
<glyph unicode="&#xbe;" horiz-adv-x="1550" d="M86 739v76h96q20 -49 57 -74.5t83 -25.5q74 0 110.5 50t36.5 128q0 59 -36 107.5t-95 48.5h-82v92h80q57 0 87 49t30 113q0 51 -27 91t-96 40q-35 0 -66 -14.5t-61 -61.5h-94v76q53 70 107 88t120 18q123 0 174 -64.5t51 -156.5q0 -72 -29.5 -133.5t-85.5 -83.5 q66 -23 102 -83.5t36 -125.5q0 -59 -15.5 -112.5t-48.5 -93.5t-84 -62.5t-121 -22.5q-72 0 -133 38t-96 99zM350 -20l793 1552h88v-78l-791 -1552h-90v78zM960 190v84l336 582h117v-574h53v-92h-53v-246h-113v246h-340zM1073 282h227v398z" />
<glyph unicode="&#xbf;" horiz-adv-x="946" d="M92 49q0 84 25.5 145.5t65.5 109.5t85 88t85 79t66 82t26 96q0 86 -13 174h140q20 -47 29 -94t9 -90q0 -72 -24.5 -124t-61 -95t-79.5 -80t-80 -78t-61.5 -89t-24.5 -116t41 -117t141 -49q104 0 154.5 43t76.5 129h148v-112q-57 -123 -146.5 -180.5t-236.5 -57.5 q-100 0 -170 27.5t-113 73.5t-62.5 107.5t-19.5 127.5zM428 1079v213h158v-213h-158z" />
<glyph unicode="&#xc0;" horiz-adv-x="991" d="M43 0v147l332 1373h231l342 -1373v-147h-176l-72 297h-419l-66 -297h-172zM242 1761v115l436 -105v-71zM305 459h371l-189 801z" />
<glyph unicode="&#xc1;" horiz-adv-x="991" d="M43 0v147l332 1373h231l342 -1373v-147h-176l-72 297h-419l-66 -297h-172zM305 459h371l-189 801zM342 1700v71l434 105v-115z" />
<glyph unicode="&#xc2;" horiz-adv-x="991" d="M43 0v147l332 1373h231l342 -1373v-147h-176l-72 297h-419l-66 -297h-172zM213 1683v72l277 121l276 -121v-72l-276 86zM305 459h371l-189 801z" />
<glyph unicode="&#xc3;" horiz-adv-x="991" d="M43 0v147l332 1373h231l342 -1373v-147h-176l-72 297h-419l-66 -297h-172zM215 1726v72q29 35 71 49.5t85 14.5q37 0 65.5 -8.5t54 -18.5t52.5 -18.5t59 -8.5q47 0 81 8.5t83 32.5v-71q-29 -37 -70.5 -51.5t-82.5 -14.5q-39 0 -68 8t-54.5 18.5t-51 18.5t-58.5 8 q-41 0 -74.5 -7t-91.5 -32zM305 459h371l-189 801z" />
<glyph unicode="&#xc4;" horiz-adv-x="991" d="M43 0v147l332 1373h231l342 -1373v-147h-176l-72 297h-419l-66 -297h-172zM229 1688v233h144v-233h-144zM305 459h371l-189 801zM608 1688v233h143v-233h-143z" />
<glyph unicode="&#xc5;" horiz-adv-x="991" d="M43 0v147l332 1373h231l342 -1373v-147h-176l-72 297h-419l-66 -297h-172zM305 459h371l-189 801zM307 1765q0 92 43.5 143.5t141.5 51.5t139 -51t41 -144q0 -92 -41 -143t-139 -51t-141.5 51t-43.5 143zM371 1765q0 -61 27.5 -95t93.5 -34q63 0 89.5 34t26.5 95 t-26.5 95t-89.5 34q-66 0 -93.5 -33.5t-27.5 -95.5z" />
<glyph unicode="&#xc6;" horiz-adv-x="1437" d="M37 0v129l424 1391h897v-172h-516v-459h504v-174h-504v-545h522v-170h-715v297h-373l-81 -297h-158zM322 459h327v889h-80z" />
<glyph unicode="&#xc7;" horiz-adv-x="1007" d="M80 543v454q0 266 116.5 406.5t364.5 140.5q111 0 215.5 -46t179.5 -175v-123h-163q-47 96 -111 132t-129 36q-154 0 -217.5 -100.5t-63.5 -317.5v-360q0 -88 13.5 -164t44 -132t82 -88t127.5 -32q45 0 73.5 2t61.5 8t77 19.5t117 36.5l74 22v-129l-94 -47 q-55 -27 -95 -47.5t-74 -33.5t-63.5 -19t-62.5 -6l-12 -123q49 -8 86 -41t37 -105q0 -86 -57.5 -121.5t-162.5 -38.5v72q72 2 101.5 23.5t29.5 70.5q0 47 -30.5 68.5t-77.5 24.5l20 172q-106 8 -183 51t-127 115.5t-73.5 172t-23.5 222.5z" />
<glyph unicode="&#xc8;" horiz-adv-x="884" d="M96 0v1520h711v-172h-518v-459h504v-174h-504v-545h522v-170h-715zM201 1761v115l436 -105v-71z" />
<glyph unicode="&#xc9;" horiz-adv-x="884" d="M96 0v1520h711v-172h-518v-459h504v-174h-504v-545h522v-170h-715zM299 1700v71l434 105v-115z" />
<glyph unicode="&#xca;" horiz-adv-x="884" d="M96 0v1520h711v-172h-518v-459h504v-174h-504v-545h522v-170h-715zM166 1683v72l277 121l276 -121v-72l-276 86z" />
<glyph unicode="&#xcb;" horiz-adv-x="884" d="M96 0v1520h711v-172h-518v-459h504v-174h-504v-545h522v-170h-715zM184 1688v233h144v-233h-144zM563 1688v233h143v-233h-143z" />
<glyph unicode="&#xcc;" horiz-adv-x="403" d="M-45 1761v115l436 -105v-71zM106 0v1520h191v-1520h-191z" />
<glyph unicode="&#xcd;" horiz-adv-x="403" d="M57 1700v71l434 105v-115zM106 0v1520h191v-1520h-191z" />
<glyph unicode="&#xce;" horiz-adv-x="403" d="M-74 1683v72l277 121l276 -121v-72l-276 86zM106 0v1520h191v-1520h-191z" />
<glyph unicode="&#xcf;" horiz-adv-x="403" d="M-58 1688v233h144v-233h-144zM106 0v1520h191v-1520h-191zM321 1688v233h143v-233h-143z" />
<glyph unicode="&#xd0;" horiz-adv-x="1064" d="M16 715v174h76v631h510q104 0 176 -42t116 -115t63.5 -169t19.5 -207v-409q0 -145 -15.5 -253t-57.5 -180.5t-114.5 -108.5t-187.5 -36h-510v715h-76zM285 172h270q68 0 112 22.5t69.5 71.5t35.5 128t10 194v395q0 180 -51 273.5t-184 93.5h-262v-461h268v-174h-268v-543 z" />
<glyph unicode="&#xd1;" horiz-adv-x="1122" d="M94 0v1520h180l584 -1137v1137h168v-1520h-182l-580 1110v-1110h-170zM278 1726v72q29 35 71 49.5t85 14.5q37 0 65.5 -8.5t54 -18.5t52.5 -18.5t59 -8.5q47 0 81 8.5t83 32.5v-71q-29 -37 -70.5 -51.5t-82.5 -14.5q-39 0 -68 8t-54.5 18.5t-51 18.5t-58.5 8 q-41 0 -74.5 -7t-91.5 -32z" />
<glyph unicode="&#xd2;" horiz-adv-x="1073" d="M80 618v283q0 131 14.5 248t61.5 204t137 137t244 50t243.5 -50t137 -137t61.5 -204t14 -248v-283q0 -129 -14 -245.5t-61.5 -203.5t-137.5 -138t-243 -51q-154 0 -244 51t-137 138t-61.5 203.5t-14.5 245.5zM276 645q0 -121 8.5 -214t35 -156.5t78 -95.5t139.5 -32 t139 32t77.5 95.5t35 156.5t8.5 214v229q0 123 -8.5 215.5t-35 155t-77.5 94t-139 31.5t-139.5 -31.5t-78 -94t-35 -155t-8.5 -215.5v-229zM293 1761v115l436 -105v-71z" />
<glyph unicode="&#xd3;" horiz-adv-x="1073" d="M80 618v283q0 131 14.5 248t61.5 204t137 137t244 50t243.5 -50t137 -137t61.5 -204t14 -248v-283q0 -129 -14 -245.5t-61.5 -203.5t-137.5 -138t-243 -51q-154 0 -244 51t-137 138t-61.5 203.5t-14.5 245.5zM276 645q0 -121 8.5 -214t35 -156.5t78 -95.5t139.5 -32 t139 32t77.5 95.5t35 156.5t8.5 214v229q0 123 -8.5 215.5t-35 155t-77.5 94t-139 31.5t-139.5 -31.5t-78 -94t-35 -155t-8.5 -215.5v-229zM387 1700v71l434 105v-115z" />
<glyph unicode="&#xd4;" horiz-adv-x="1073" d="M80 618v283q0 131 14.5 248t61.5 204t137 137t244 50t243.5 -50t137 -137t61.5 -204t14 -248v-283q0 -129 -14 -245.5t-61.5 -203.5t-137.5 -138t-243 -51q-154 0 -244 51t-137 138t-61.5 203.5t-14.5 245.5zM260 1683v72l277 121l276 -121v-72l-276 86zM276 645 q0 -121 8.5 -214t35 -156.5t78 -95.5t139.5 -32t139 32t77.5 95.5t35 156.5t8.5 214v229q0 123 -8.5 215.5t-35 155t-77.5 94t-139 31.5t-139.5 -31.5t-78 -94t-35 -155t-8.5 -215.5v-229z" />
<glyph unicode="&#xd5;" horiz-adv-x="1073" d="M80 618v283q0 131 14.5 248t61.5 204t137 137t244 50t243.5 -50t137 -137t61.5 -204t14 -248v-283q0 -129 -14 -245.5t-61.5 -203.5t-137.5 -138t-243 -51q-154 0 -244 51t-137 138t-61.5 203.5t-14.5 245.5zM260 1726v72q29 35 71 49.5t85 14.5q37 0 65.5 -8.5t54 -18.5 t52.5 -18.5t59 -8.5q47 0 81 8.5t83 32.5v-71q-29 -37 -70.5 -51.5t-82.5 -14.5q-39 0 -68 8t-54.5 18.5t-51 18.5t-58.5 8q-41 0 -74.5 -7t-91.5 -32zM276 645q0 -121 8.5 -214t35 -156.5t78 -95.5t139.5 -32t139 32t77.5 95.5t35 156.5t8.5 214v229q0 123 -8.5 215.5 t-35 155t-77.5 94t-139 31.5t-139.5 -31.5t-78 -94t-35 -155t-8.5 -215.5v-229z" />
<glyph unicode="&#xd6;" horiz-adv-x="1073" d="M80 618v283q0 131 14.5 248t61.5 204t137 137t244 50t243.5 -50t137 -137t61.5 -204t14 -248v-283q0 -129 -14 -245.5t-61.5 -203.5t-137.5 -138t-243 -51q-154 0 -244 51t-137 138t-61.5 203.5t-14.5 245.5zM270 1688v233h144v-233h-144zM276 645q0 -121 8.5 -214 t35 -156.5t78 -95.5t139.5 -32t139 32t77.5 95.5t35 156.5t8.5 214v229q0 123 -8.5 215.5t-35 155t-77.5 94t-139 31.5t-139.5 -31.5t-78 -94t-35 -155t-8.5 -215.5v-229zM649 1688v233h143v-233h-143z" />
<glyph unicode="&#xd7;" horiz-adv-x="923" d="M115 485l258 258l-258 258l94 93l256 -256l258 256l92 -93l-256 -258l258 -258l-92 -94l-260 258l-256 -258z" />
<glyph unicode="&#xd8;" horiz-adv-x="1073" d="M80 618v283q0 131 14.5 248t61.5 204t137 137t244 50q160 0 254 -57l61 149h74v-33l-70 -165q43 -43 70.5 -101.5t42 -126t19.5 -145.5t5 -160v-283q0 -129 -14 -245.5t-61.5 -203.5t-137.5 -138t-243 -51q-82 0 -144.5 14t-109.5 41l-60 -148h-73v33l67 166 q-45 43 -71.5 100.5t-41 126t-19.5 146.5t-5 159zM276 645q0 -111 5.5 -193.5t25.5 -146.5l410 1000q-59 66 -180 65q-88 0 -139.5 -31.5t-78 -94t-35 -155t-8.5 -215.5v-229zM356 213q59 -66 181 -66q88 0 139 32t77.5 95.5t35 156.5t8.5 214v229q0 106 -6.5 190.5 t-24.5 145.5z" />
<glyph unicode="&#xd9;" horiz-adv-x="1048" d="M88 483v1037h193v-985q0 -104 11 -178t39.5 -120.5t75 -66.5t117.5 -20q70 0 117 20t75.5 66.5t40 117t11.5 172.5v994h190v-1037q0 -117 -22.5 -210t-72.5 -158.5t-134 -101.5t-207 -36q-227 0 -330.5 129.5t-103.5 376.5zM281 1761v115l436 -105v-71z" />
<glyph unicode="&#xda;" horiz-adv-x="1048" d="M88 483v1037h193v-985q0 -104 11 -178t39.5 -120.5t75 -66.5t117.5 -20q70 0 117 20t75.5 66.5t40 117t11.5 172.5v994h190v-1037q0 -117 -22.5 -210t-72.5 -158.5t-134 -101.5t-207 -36q-227 0 -330.5 129.5t-103.5 376.5zM379 1700v71l434 105v-115z" />
<glyph unicode="&#xdb;" horiz-adv-x="1048" d="M88 483v1037h193v-985q0 -104 11 -178t39.5 -120.5t75 -66.5t117.5 -20q70 0 117 20t75.5 66.5t40 117t11.5 172.5v994h190v-1037q0 -117 -22.5 -210t-72.5 -158.5t-134 -101.5t-207 -36q-227 0 -330.5 129.5t-103.5 376.5zM248 1683v72l277 121l276 -121v-72l-276 86z " />
<glyph unicode="&#xdc;" horiz-adv-x="1048" d="M88 483v1037h193v-985q0 -104 11 -178t39.5 -120.5t75 -66.5t117.5 -20q70 0 117 20t75.5 66.5t40 117t11.5 172.5v994h190v-1037q0 -117 -22.5 -210t-72.5 -158.5t-134 -101.5t-207 -36q-227 0 -330.5 129.5t-103.5 376.5zM270 1688v233h144v-233h-144zM649 1688v233 h143v-233h-143z" />
<glyph unicode="&#xdd;" horiz-adv-x="985" d="M39 1393v127h168l289 -750l288 750h162v-127l-358 -820v-573h-191v569zM344 1700v71l434 105v-115z" />
<glyph unicode="&#xde;" horiz-adv-x="968" d="M96 0v1520h193v-287h225q211 0 315.5 -86t104.5 -287v-149q0 -94 -21.5 -172t-70.5 -133.5t-129 -86t-199 -30.5h-225v-289h-193zM289 453h147q88 0 148.5 14t95.5 47t50 87t15 136v35q0 82 -11 138.5t-40.5 91t-78 50t-121.5 15.5h-205v-614z" />
<glyph unicode="&#xdf;" horiz-adv-x="983" d="M94 0v1360q0 57 8.5 107.5t30 86t58 56t96.5 20.5h354q70 0 114 -20.5t69.5 -62.5t34.5 -105.5t9 -147.5q0 -180 -41 -277t-139 -126q106 -20 168 -120.5t62 -266.5t-20.5 -265.5t-72 -152.5t-139.5 -69.5t-223 -16.5v145q82 0 134 13.5t82 52.5t41 111.5t11 191.5 q0 154 -57.5 224.5t-161.5 70.5h-49v143h47q98 0 141 62.5t43 226.5q0 74 -7 120t-20.5 72.5t-35 36t-49.5 9.5h-185q-70 0 -93 -28t-23 -97v-1354h-187z" />
<glyph unicode="&#xe0;" horiz-adv-x="952" d="M53 381q0 154 67.5 227.5t221.5 73.5h332q0 84 -8.5 141.5t-32 92t-67.5 49t-113 14.5q-68 0 -130.5 -15.5t-150.5 -41.5l-61 -19v123l57 29q55 27 99 46t82 30.5t74 17.5t75 6q100 0 168.5 -27.5t111.5 -87t61.5 -154.5t18.5 -233v-518q0 -31 25 -31h16v-104h-76 q-68 0 -99.5 37t-35.5 96q-78 -49 -127 -77.5t-84 -43t-62.5 -18.5t-62.5 -4q-158 0 -228.5 106.5t-70.5 284.5zM233 381q0 -236 152 -236q27 0 51.5 3.5t55 13.5t72.5 30.5t108 55.5v315h-279q-86 0 -123 -44t-37 -138zM242 1376v115l436 -105v-71z" />
<glyph unicode="&#xe1;" horiz-adv-x="952" d="M53 381q0 154 67.5 227.5t221.5 73.5h332q0 84 -8.5 141.5t-32 92t-67.5 49t-113 14.5q-68 0 -130.5 -15.5t-150.5 -41.5l-61 -19v123l57 29q55 27 99 46t82 30.5t74 17.5t75 6q100 0 168.5 -27.5t111.5 -87t61.5 -154.5t18.5 -233v-518q0 -31 25 -31h16v-104h-76 q-68 0 -99.5 37t-35.5 96q-78 -49 -127 -77.5t-84 -43t-62.5 -18.5t-62.5 -4q-158 0 -228.5 106.5t-70.5 284.5zM233 381q0 -236 152 -236q27 0 51.5 3.5t55 13.5t72.5 30.5t108 55.5v315h-279q-86 0 -123 -44t-37 -138zM340 1315v71l434 105v-115z" />
<glyph unicode="&#xe2;" horiz-adv-x="952" d="M53 381q0 154 67.5 227.5t221.5 73.5h332q0 84 -8.5 141.5t-32 92t-67.5 49t-113 14.5q-68 0 -130.5 -15.5t-150.5 -41.5l-61 -19v123l57 29q55 27 99 46t82 30.5t74 17.5t75 6q100 0 168.5 -27.5t111.5 -87t61.5 -154.5t18.5 -233v-518q0 -31 25 -31h16v-104h-76 q-68 0 -99.5 37t-35.5 96q-78 -49 -127 -77.5t-84 -43t-62.5 -18.5t-62.5 -4q-158 0 -228.5 106.5t-70.5 284.5zM207 1298v72l277 121l276 -121v-72l-276 86zM233 381q0 -236 152 -236q27 0 51.5 3.5t55 13.5t72.5 30.5t108 55.5v315h-279q-86 0 -123 -44t-37 -138z" />
<glyph unicode="&#xe3;" horiz-adv-x="952" d="M53 381q0 154 67.5 227.5t221.5 73.5h332q0 84 -8.5 141.5t-32 92t-67.5 49t-113 14.5q-68 0 -130.5 -15.5t-150.5 -41.5l-61 -19v123l57 29q55 27 99 46t82 30.5t74 17.5t75 6q100 0 168.5 -27.5t111.5 -87t61.5 -154.5t18.5 -233v-518q0 -31 25 -31h16v-104h-76 q-68 0 -99.5 37t-35.5 96q-78 -49 -127 -77.5t-84 -43t-62.5 -18.5t-62.5 -4q-158 0 -228.5 106.5t-70.5 284.5zM207 1341v72q29 35 71 49.5t85 14.5q37 0 65.5 -8.5t54 -18.5t52.5 -18.5t59 -8.5q47 0 81 8.5t83 32.5v-71q-29 -37 -70.5 -51.5t-82.5 -14.5q-39 0 -68 8 t-54.5 18.5t-51 18.5t-58.5 8q-41 0 -74.5 -7t-91.5 -32zM233 381q0 -236 152 -236q27 0 51.5 3.5t55 13.5t72.5 30.5t108 55.5v315h-279q-86 0 -123 -44t-37 -138z" />
<glyph unicode="&#xe4;" horiz-adv-x="952" d="M53 381q0 154 67.5 227.5t221.5 73.5h332q0 84 -8.5 141.5t-32 92t-67.5 49t-113 14.5q-68 0 -130.5 -15.5t-150.5 -41.5l-61 -19v123l57 29q55 27 99 46t82 30.5t74 17.5t75 6q100 0 168.5 -27.5t111.5 -87t61.5 -154.5t18.5 -233v-518q0 -31 25 -31h16v-104h-76 q-68 0 -99.5 37t-35.5 96q-78 -49 -127 -77.5t-84 -43t-62.5 -18.5t-62.5 -4q-158 0 -228.5 106.5t-70.5 284.5zM223 1303v233h144v-233h-144zM233 381q0 -236 152 -236q27 0 51.5 3.5t55 13.5t72.5 30.5t108 55.5v315h-279q-86 0 -123 -44t-37 -138zM602 1303v233h143v-233 h-143z" />
<glyph unicode="&#xe5;" horiz-adv-x="952" d="M53 381q0 154 67.5 227.5t221.5 73.5h332q0 84 -8.5 141.5t-32 92t-67.5 49t-113 14.5q-68 0 -130.5 -15.5t-150.5 -41.5l-61 -19v123l57 29q55 27 99 46t82 30.5t74 17.5t75 6q100 0 168.5 -27.5t111.5 -87t61.5 -154.5t18.5 -233v-518q0 -31 25 -31h16v-104h-76 q-68 0 -99.5 37t-35.5 96q-78 -49 -127 -77.5t-84 -43t-62.5 -18.5t-62.5 -4q-158 0 -228.5 106.5t-70.5 284.5zM233 381q0 -236 152 -236q27 0 51.5 3.5t55 13.5t72.5 30.5t108 55.5v315h-279q-86 0 -123 -44t-37 -138zM297 1380q0 92 43.5 143.5t141.5 51.5t139 -51 t41 -144q0 -92 -41 -143t-139 -51t-141.5 51t-43.5 143zM361 1380q0 -61 27.5 -95t93.5 -34q63 0 89.5 34t26.5 95t-26.5 95t-89.5 34q-66 0 -93.5 -33.5t-27.5 -95.5z" />
<glyph unicode="&#xe6;" horiz-adv-x="1542" d="M53 381q0 154 67.5 227.5t221.5 73.5h332q-2 66 -7 120t-27 94t-66 61.5t-121 21.5q-68 0 -130.5 -15.5t-150.5 -41.5l-61 -19v123l57 29q55 27 99 46t82 30.5t74 17.5t75 6q92 0 169.5 -46t114.5 -140q35 92 115 139t180 47q117 0 191.5 -37t119 -103.5t60.5 -158.5 t16 -203v-123h-606q0 -57 7 -122.5t31 -122t69 -93t122 -36.5q27 0 49.5 1t52.5 7t74 18.5t111 32.5l62 18v-124l-39 -21q-72 -37 -119 -58.5t-81 -32.5t-60.5 -14t-53.5 -3q-106 0 -196 41.5t-144 146.5q-80 -53 -135 -88t-98 -54.5t-80 -27.5t-78 -8q-158 0 -228.5 106.5 t-70.5 284.5zM233 381q0 -236 152 -236q31 0 56.5 3.5t59.5 14.5t79 32.5t114 58.5q-23 113 -22 231v78h-279q-86 0 -123 -44t-37 -138zM860 651h424v35q0 160 -44 243t-165 83q-66 0 -106.5 -27t-65 -71t-34 -100t-9.5 -116v-47z" />
<glyph unicode="&#xe7;" horiz-adv-x="911" d="M78 532v144q0 231 97 355t319 124q117 0 209 -36t143 -128v-112h-146q-27 70 -83 94t-123 24q-72 0 -118 -23.5t-73 -69.5t-37 -113.5t-10 -153.5v-72q0 -94 10 -170t36 -129t72 -81.5t118 -28.5q27 0 49 1t52 7t74 18.5t111 32.5l62 18v-124l-39 -21q-66 -35 -111 -55.5 t-78.5 -32.5t-58.5 -16t-49 -4l-12 -123q49 -8 85.5 -41t36.5 -105q0 -86 -57 -121.5t-162 -38.5v72q72 2 101.5 23.5t29.5 70.5q0 47 -30.5 68.5t-77.5 24.5l20 172q-106 8 -175.5 52t-110.5 116.5t-57.5 170t-16.5 211.5z" />
<glyph unicode="&#xe8;" horiz-adv-x="944" d="M78 532v144q0 233 95 356t308 123q117 0 192 -37t119 -103.5t60 -158.5t16 -203v-123h-608q0 -59 6 -124.5t29.5 -121t70 -92t126.5 -36.5q27 0 49 1t52 7t74 18.5t111 32.5l62 18v-124l-39 -21q-72 -37 -119 -58.5t-81 -32.5t-60.5 -14t-53.5 -3q-125 0 -204.5 43 t-124.5 118.5t-62.5 176t-17.5 214.5zM231 1376v115l436 -105v-71zM264 651h424v35q0 160 -44 243t-165 83q-111 0 -163 -74t-52 -240v-47z" />
<glyph unicode="&#xe9;" horiz-adv-x="944" d="M78 532v144q0 233 95 356t308 123q117 0 192 -37t119 -103.5t60 -158.5t16 -203v-123h-608q0 -59 6 -124.5t29.5 -121t70 -92t126.5 -36.5q27 0 49 1t52 7t74 18.5t111 32.5l62 18v-124l-39 -21q-72 -37 -119 -58.5t-81 -32.5t-60.5 -14t-53.5 -3q-125 0 -204.5 43 t-124.5 118.5t-62.5 176t-17.5 214.5zM264 651h424v35q0 160 -44 243t-165 83q-111 0 -163 -74t-52 -240v-47zM330 1315v71l434 105v-115z" />
<glyph unicode="&#xea;" horiz-adv-x="944" d="M78 532v144q0 233 95 356t308 123q117 0 192 -37t119 -103.5t60 -158.5t16 -203v-123h-608q0 -59 6 -124.5t29.5 -121t70 -92t126.5 -36.5q27 0 49 1t52 7t74 18.5t111 32.5l62 18v-124l-39 -21q-72 -37 -119 -58.5t-81 -32.5t-60.5 -14t-53.5 -3q-125 0 -204.5 43 t-124.5 118.5t-62.5 176t-17.5 214.5zM196 1298v72l277 121l276 -121v-72l-276 86zM264 651h424v35q0 160 -44 243t-165 83q-111 0 -163 -74t-52 -240v-47z" />
<glyph unicode="&#xeb;" horiz-adv-x="944" d="M78 532v144q0 233 95 356t308 123q117 0 192 -37t119 -103.5t60 -158.5t16 -203v-123h-608q0 -59 6 -124.5t29.5 -121t70 -92t126.5 -36.5q27 0 49 1t52 7t74 18.5t111 32.5l62 18v-124l-39 -21q-72 -37 -119 -58.5t-81 -32.5t-60.5 -14t-53.5 -3q-125 0 -204.5 43 t-124.5 118.5t-62.5 176t-17.5 214.5zM213 1303v233h144v-233h-144zM264 651h424v35q0 160 -44 243t-165 83q-111 0 -163 -74t-52 -240v-47zM592 1303v233h143v-233h-143z" />
<glyph unicode="&#xec;" horiz-adv-x="411" d="M-39 1376v115l436 -105v-71zM96 78v1057h187v-996q0 -35 24 -35h21v-104h-162q-70 0 -70 78z" />
<glyph unicode="&#xed;" horiz-adv-x="411" d="M47 1315v71l434 105v-115zM96 78v1057h187v-996q0 -35 24 -35h21v-104h-162q-70 0 -70 78z" />
<glyph unicode="&#xee;" horiz-adv-x="411" d="M-84 1298v72l277 121l276 -121v-72l-276 86zM96 78v1057h187v-996q0 -35 24 -35h21v-104h-162q-70 0 -70 78z" />
<glyph unicode="&#xef;" horiz-adv-x="411" d="M-68 1303v233h144v-233h-144zM96 78v1057h187v-996q0 -35 24 -35h21v-104h-162q-70 0 -70 78zM311 1303v233h143v-233h-143z" />
<glyph unicode="&#xf0;" horiz-adv-x="974" d="M68 471v68q0 129 16 229t60 169t120 103.5t197 34.5q27 0 49 -3t50 -11t67 -24.5t98 -43.5q-6 100 -28.5 193.5t-69.5 163.5l-228 -203l-61 72l219 196q-41 29 -91 41t-104 23v108l95 43q66 -10 126 -31.5t109 -62.5l107 94l61 -74l-104 -92q43 -57 68.5 -127.5 t40 -151.5t19.5 -172t5 -188v-303q0 -127 -17.5 -226t-63.5 -169t-126 -106.5t-205 -36.5q-117 0 -194.5 32.5t-125.5 95t-68.5 153.5t-20.5 206zM252 485q0 -166 48 -250.5t177 -84.5q135 0 180 93t45 271v23q0 80 -1 132t-4 85.5t-6 54t-7 37.5q-74 39 -110.5 51t-73.5 12 q-74 0 -122 -22.5t-76 -68.5t-39 -113.5t-11 -159.5v-60z" />
<glyph unicode="&#xf1;" d="M92 0v1135h154l10 -64q72 31 114 48.5t65.5 24.5t33.5 9t18 2q143 0 226.5 -29.5t125.5 -86t52 -137.5t10 -183v-719h-186v719q0 76 -6.5 129t-32 86t-77.5 47t-144 14q-14 0 -27.5 -1t-33 -5t-47.5 -11t-68 -20v-958h-187zM194 1341v72q29 35 71 49.5t85 14.5 q37 0 65.5 -8.5t54 -18.5t52.5 -18.5t59 -8.5q47 0 81 8.5t83 32.5v-71q-29 -37 -70.5 -51.5t-82.5 -14.5q-39 0 -68 8t-54.5 18.5t-51 18.5t-58.5 8q-41 0 -74.5 -7t-91.5 -32z" />
<glyph unicode="&#xf2;" d="M78 526v82q0 125 14 226.5t57.5 172t124 109.5t215.5 39t217 -39t125 -109.5t57.5 -172t14.5 -226.5v-82q0 -125 -14.5 -226t-57.5 -172t-124.5 -109.5t-217.5 -38.5q-135 0 -215.5 38.5t-124 109.5t-57.5 172t-14 226zM240 1376v115l436 -105v-71zM264 547 q0 -100 7.5 -177t31 -128.5t68.5 -78t118 -26.5q74 0 119 26.5t68.5 78t31 128t7.5 177.5v98q0 84 -9.5 149.5t-34 109.5t-68.5 67.5t-114 23.5q-74 0 -118.5 -25.5t-68 -76.5t-31 -128t-7.5 -177v-41z" />
<glyph unicode="&#xf3;" d="M78 526v82q0 125 14 226.5t57.5 172t124 109.5t215.5 39t217 -39t125 -109.5t57.5 -172t14.5 -226.5v-82q0 -125 -14.5 -226t-57.5 -172t-124.5 -109.5t-217.5 -38.5q-135 0 -215.5 38.5t-124 109.5t-57.5 172t-14 226zM264 547q0 -100 7.5 -177t31 -128.5t68.5 -78 t118 -26.5q74 0 119 26.5t68.5 78t31 128t7.5 177.5v98q0 84 -9.5 149.5t-34 109.5t-68.5 67.5t-114 23.5q-74 0 -118.5 -25.5t-68 -76.5t-31 -128t-7.5 -177v-41zM342 1315v71l434 105v-115z" />
<glyph unicode="&#xf4;" d="M78 526v82q0 125 14 226.5t57.5 172t124 109.5t215.5 39t217 -39t125 -109.5t57.5 -172t14.5 -226.5v-82q0 -125 -14.5 -226t-57.5 -172t-124.5 -109.5t-217.5 -38.5q-135 0 -215.5 38.5t-124 109.5t-57.5 172t-14 226zM213 1298v72l277 121l276 -121v-72l-276 86z M264 547q0 -100 7.5 -177t31 -128.5t68.5 -78t118 -26.5q74 0 119 26.5t68.5 78t31 128t7.5 177.5v98q0 84 -9.5 149.5t-34 109.5t-68.5 67.5t-114 23.5q-74 0 -118.5 -25.5t-68 -76.5t-31 -128t-7.5 -177v-41z" />
<glyph unicode="&#xf5;" d="M78 526v82q0 125 14 226.5t57.5 172t124 109.5t215.5 39t217 -39t125 -109.5t57.5 -172t14.5 -226.5v-82q0 -125 -14.5 -226t-57.5 -172t-124.5 -109.5t-217.5 -38.5q-135 0 -215.5 38.5t-124 109.5t-57.5 172t-14 226zM213 1341v72q29 35 71 49.5t85 14.5 q37 0 65.5 -8.5t54 -18.5t52.5 -18.5t59 -8.5q47 0 81 8.5t83 32.5v-71q-29 -37 -70.5 -51.5t-82.5 -14.5q-39 0 -68 8t-54.5 18.5t-51 18.5t-58.5 8q-41 0 -74.5 -7t-91.5 -32zM264 547q0 -100 7.5 -177t31 -128.5t68.5 -78t118 -26.5q74 0 119 26.5t68.5 78t31 128 t7.5 177.5v98q0 84 -9.5 149.5t-34 109.5t-68.5 67.5t-114 23.5q-74 0 -118.5 -25.5t-68 -76.5t-31 -128t-7.5 -177v-41z" />
<glyph unicode="&#xf6;" d="M78 526v82q0 125 14 226.5t57.5 172t124 109.5t215.5 39t217 -39t125 -109.5t57.5 -172t14.5 -226.5v-82q0 -125 -14.5 -226t-57.5 -172t-124.5 -109.5t-217.5 -38.5q-135 0 -215.5 38.5t-124 109.5t-57.5 172t-14 226zM223 1303v233h144v-233h-144zM264 547 q0 -100 7.5 -177t31 -128.5t68.5 -78t118 -26.5q74 0 119 26.5t68.5 78t31 128t7.5 177.5v98q0 84 -9.5 149.5t-34 109.5t-68.5 67.5t-114 23.5q-74 0 -118.5 -25.5t-68 -76.5t-31 -128t-7.5 -177v-41zM602 1303v233h143v-233h-143z" />
<glyph unicode="&#xf7;" horiz-adv-x="1034" d="M88 678v131h858v-131h-858zM440 215v213h158v-213h-158zM440 1065v213h158v-213h-158z" />
<glyph unicode="&#xf8;" d="M78 526v82q0 125 14 226.5t57.5 172t124 109.5t215.5 39q68 0 122.5 -10t95.5 -29l38 80h74v-33l-43 -92q78 -68 102.5 -185.5t24.5 -277.5v-82q0 -125 -14.5 -226t-57.5 -172t-124.5 -109.5t-217.5 -38.5q-68 0 -121 10t-94 28l-36 -79h-76v32l43 90q-80 68 -103.5 187 t-23.5 278zM264 547q0 -98 6 -169t27 -124l334 700q-53 41 -142 41q-74 0 -118.5 -25.5t-68 -76.5t-31 -128t-7.5 -177v-41zM350 176q45 -39 139 -39q74 0 119 26.5t68.5 78t31 128t7.5 177.5v98q0 72 -7.5 131.5t-23.5 102.5z" />
<glyph unicode="&#xf9;" horiz-adv-x="960" d="M80 322v813h184v-797q0 -109 56.5 -150t160.5 -41t160.5 41t56.5 150v797h183v-813q0 -184 -102.5 -263t-301.5 -79t-298 78.5t-99 263.5zM238 1376v115l436 -105v-71z" />
<glyph unicode="&#xfa;" horiz-adv-x="960" d="M80 322v813h184v-797q0 -109 56.5 -150t160.5 -41t160.5 41t56.5 150v797h183v-813q0 -184 -102.5 -263t-301.5 -79t-298 78.5t-99 263.5zM336 1315v71l434 105v-115z" />
<glyph unicode="&#xfb;" horiz-adv-x="960" d="M80 322v813h184v-797q0 -109 56.5 -150t160.5 -41t160.5 41t56.5 150v797h183v-813q0 -184 -102.5 -263t-301.5 -79t-298 78.5t-99 263.5zM202 1298v72l277 121l276 -121v-72l-276 86z" />
<glyph unicode="&#xfc;" horiz-adv-x="960" d="M80 322v813h184v-797q0 -109 56.5 -150t160.5 -41t160.5 41t56.5 150v797h183v-813q0 -184 -102.5 -263t-301.5 -79t-298 78.5t-99 263.5zM219 1303v233h144v-233h-144zM598 1303v233h143v-233h-143z" />
<glyph unicode="&#xfd;" horiz-adv-x="983" d="M51 1022v113h178l269 -899l270 899h162v-113l-494 -1471h-184l143 437zM342 1315v71l434 105v-115z" />
<glyph unicode="&#xfe;" horiz-adv-x="966" d="M94 -449v1842l41 237h146v-557q57 29 93 45.5t58.5 24.5t37.5 10t32 2q143 0 223 -44t119 -121t47 -181t8 -223v-39q0 -135 -9 -241.5t-49 -178.5t-120 -109.5t-219 -37.5q-12 0 -25.5 2t-36 9t-59.5 23.5t-100 44.5v-508h-187zM281 184q51 -16 81.5 -25t49 -13.5 t26.5 -5.5t15 -1q88 0 140 19.5t78.5 68.5t34 131t7.5 207q0 119 -5.5 201t-30 133t-77.5 73.5t-147 22.5q-12 0 -24.5 -1t-30 -5t-45 -13t-72.5 -26v-766z" />
<glyph unicode="&#xff;" horiz-adv-x="983" d="M51 1022v113h178l269 -899l270 899h162v-113l-494 -1471h-184l143 437zM227 1303v233h144v-233h-144zM606 1303v233h143v-233h-143z" />
<glyph unicode="&#x152;" horiz-adv-x="1556" d="M80 618v283q0 131 14.5 248t61.5 204t137 137t244 50q111 0 177 -36t107 -99v115h656v-172h-486v-459h473v-174h-473v-545h492v-170h-664v125q-90 -145 -282 -145q-154 0 -244 50t-137 137t-61.5 202.5t-14.5 248.5zM276 645q0 -121 8.5 -214t35 -156.5t78 -95.5 t139.5 -32t139 32t77.5 95.5t35 156.5t8.5 214v254q0 117 -9.5 206t-37 147.5t-78.5 88t-135 29.5q-88 0 -139.5 -31.5t-78 -94t-35 -155t-8.5 -215.5v-229z" />
<glyph unicode="&#x153;" horiz-adv-x="1581" d="M78 526v82q0 125 14 226.5t57.5 172t124 109.5t215.5 39q139 0 215 -49t109 -117q41 82 114.5 124t190.5 42t191.5 -37t119 -103.5t60.5 -158.5t16 -203v-123h-608q0 -59 6 -124.5t29.5 -121t70 -92t125.5 -36.5q27 0 49.5 1t52.5 7t74 18.5t111 32.5l62 18v-124l-39 -21 q-72 -37 -119 -58.5t-81 -32.5t-60.5 -14t-53.5 -3q-125 0 -199.5 48t-109.5 113q-37 -66 -113.5 -113.5t-212.5 -47.5q-135 0 -215.5 38.5t-124 109.5t-57.5 172t-14 226zM264 547q0 -100 7.5 -177t31 -128.5t68.5 -78t118 -26.5q74 0 119 26.5t68.5 78t31 128t7.5 177.5 v98q0 84 -9.5 149.5t-34 109.5t-68.5 67.5t-114 23.5q-74 0 -118.5 -25.5t-68 -76.5t-31 -128t-7.5 -177v-41zM901 651h424v35q0 160 -44 243t-165 83q-111 0 -163 -74t-52 -240v-47z" />
<glyph unicode="&#x178;" horiz-adv-x="985" d="M39 1393v127h168l289 -750l288 750h162v-127l-358 -820v-573h-191v569zM231 1688v233h144v-233h-144zM610 1688v233h143v-233h-143z" />
<glyph unicode="&#x2c6;" horiz-adv-x="749" d="M96 1298v72l277 121l276 -121v-72l-276 86z" />
<glyph unicode="&#x2dc;" horiz-adv-x="747" d="M96 1341v72q29 35 71 49.5t85 14.5q37 0 65.5 -8.5t54 -18.5t52.5 -18.5t59 -8.5q47 0 81 8.5t83 32.5v-71q-29 -37 -70.5 -51.5t-82.5 -14.5q-39 0 -68 8t-54.5 18.5t-51 18.5t-58.5 8q-41 0 -74.5 -7t-91.5 -32z" />
<glyph unicode="&#x2000;" />
<glyph unicode="&#x2001;" horiz-adv-x="1960" />
<glyph unicode="&#x2002;" />
<glyph unicode="&#x2003;" horiz-adv-x="1960" />
<glyph unicode="&#x2004;" horiz-adv-x="653" />
<glyph unicode="&#x2005;" horiz-adv-x="490" />
<glyph unicode="&#x2006;" horiz-adv-x="326" />
<glyph unicode="&#x2007;" horiz-adv-x="326" />
<glyph unicode="&#x2008;" horiz-adv-x="245" />
<glyph unicode="&#x2009;" horiz-adv-x="392" />
<glyph unicode="&#x200a;" horiz-adv-x="108" />
<glyph unicode="&#x2010;" horiz-adv-x="569" d="M49 586v108h473v-108h-473z" />
<glyph unicode="&#x2011;" horiz-adv-x="569" d="M49 586v108h473v-108h-473z" />
<glyph unicode="&#x2012;" horiz-adv-x="569" d="M49 586v108h473v-108h-473z" />
<glyph unicode="&#x2013;" horiz-adv-x="989" d="M49 586v108h893v-108h-893z" />
<glyph unicode="&#x2014;" horiz-adv-x="1488" d="M49 586v108h1393v-108h-1393z" />
<glyph unicode="&#x2018;" horiz-adv-x="258" d="M49 1550v86h154v-479h-64q-27 39 -58.5 143.5t-31.5 249.5z" />
<glyph unicode="&#x2019;" horiz-adv-x="258" d="M49 1157v479h154v-86q0 -68 -10.5 -132t-23.5 -116.5t-28.5 -90t-25.5 -54.5h-66z" />
<glyph unicode="&#x201a;" horiz-adv-x="258" d="M49 -207v477h154v-86q0 -72 -9.5 -135t-22.5 -114.5t-28.5 -88t-27.5 -53.5h-66z" />
<glyph unicode="&#x201c;" horiz-adv-x="522" d="M49 1550v86h154v-479h-64q-27 39 -58.5 143.5t-31.5 249.5zM315 1550v86h154v-479h-66q-12 18 -27.5 55t-28.5 88.5t-22.5 115t-9.5 134.5z" />
<glyph unicode="&#x201d;" horiz-adv-x="522" d="M49 1157v479h154v-86q0 -68 -10.5 -132t-23.5 -116.5t-28.5 -90t-25.5 -54.5h-66zM315 1157v479h154v-86q0 -68 -10 -132t-24.5 -116.5t-30 -90t-25.5 -54.5h-64z" />
<glyph unicode="&#x201e;" horiz-adv-x="522" d="M49 -207v477h154v-86q0 -72 -9.5 -135t-22.5 -114.5t-28.5 -88t-27.5 -53.5h-66zM315 -207v477h154v-86q0 -72 -9 -135t-22.5 -114.5t-30 -88t-28.5 -53.5h-64z" />
<glyph unicode="&#x2022;" horiz-adv-x="661" d="M127 727q0 92 58.5 147.5t146.5 55.5q86 0 144.5 -55.5t58.5 -147.5q0 -43 -16.5 -80t-44.5 -64.5t-64.5 -43t-77.5 -15.5q-88 0 -146.5 58.5t-58.5 144.5z" />
<glyph unicode="&#x2026;" horiz-adv-x="1476" d="M137 0v213h160v-213h-160zM662 0v213h157v-213h-157zM1184 0v213h157v-213h-157z" />
<glyph unicode="&#x202f;" horiz-adv-x="392" />
<glyph unicode="&#x2039;" horiz-adv-x="497" d="M49 647l330 418l70 -66l-265 -352l267 -352l-72 -66z" />
<glyph unicode="&#x203a;" horiz-adv-x="497" d="M49 297l266 350l-266 352l72 66l330 -418l-330 -418z" />
<glyph unicode="&#x205f;" horiz-adv-x="490" />
<glyph unicode="&#x20ac;" horiz-adv-x="919" d="M49 752v61l19 53h51q0 172 14 298t58.5 210t124 125t212.5 41q51 0 89 -5t72 -17.5t66.5 -30t71.5 -41.5v-125h-82q-37 53 -90 71.5t-118 18.5q-88 0 -140.5 -32.5t-80 -99.5t-36 -169t-8.5 -244h408v-55l-21 -59h-387v-213q0 -219 56.5 -327t201.5 -108q88 0 143.5 38 t88.5 100h74v-115q-39 -63 -113 -108.5t-193 -45.5q-115 0 -193.5 36t-126.5 108.5t-69.5 179t-21.5 248.5v207h-70z" />
<glyph unicode="&#x2122;" horiz-adv-x="1462" d="M102 1427v93h424v-93h-159v-679h-103v679h-162zM678 748v772h143l183 -617l180 617h139v-772h-94v573l-172 -563h-109l-176 563v-573h-94z" />
<glyph unicode="&#xe000;" horiz-adv-x="1136" d="M0 0v1137h1137v-1137h-1137z" />
</font>
</defs>
</svg>
