<?xml version="1.0" encoding="utf-8"?>
<!-- Generator: Adobe Illustrator 25.2.1, SVG Export Plug-In . SVG Version: 6.00 Build 0)  -->
<svg version="1.1" id="Layer_1" xmlns="http://www.w3.org/2000/svg" xmlns:xlink="http://www.w3.org/1999/xlink" x="0px" y="0px"
	 viewBox="0 0 1638.9 288.9" style="enable-background:new 0 0 1638.9 288.9;" xml:space="preserve">
<style type="text/css">
	.st0{fill:url(#SVGID_1_);}
</style>
<linearGradient id="SVGID_1_" gradientUnits="userSpaceOnUse" x1="819.5" y1="1" x2="819.5" y2="289.9" gradientTransform="matrix(1 0 0 -1 0 290)">
	<stop  offset="0" style="stop-color:#EFF7FF"/>
	<stop  offset="0.85" style="stop-color:#EBBEBD"/>
</linearGradient>
<path class="st0" d="M43.2,108c2.7,0,5.4,0.2,8.1,0.8C66.7,72.1,109,55,145.6,70.4c21.4,9,37.1,27.8,42.2,50.5
	c37.9-46,106-52.6,152-14.6c4.5,3.7,8.6,7.7,12.5,12.1c16.2-40.7,62.3-60.5,103-44.3c0.2,0.1,0.3,0.1,0.5,0.2
	c29.9-37.2,84.3-43.1,121.5-13.1c15.3,12.3,25.9,29.4,30.1,48.5c32.3-50.2,99.1-64.7,149.3-32.4c12.6,8.1,23.4,18.7,31.6,31.2
	c31.6-35.7,86.2-39.1,122-7.5c13.4,11.8,22.7,27.5,26.9,44.8c30.8-36.4,85.3-40.9,121.7-10c2.4,2.1,4.8,4.3,7,6.6
	c-0.3-3-0.4-6-0.4-9.1c0-51.7,41.9-93.6,93.6-93.6c35.5,0,68,20.1,83.8,51.9c29.6-51.8,95.6-69.7,147.4-40.1
	c6.8,3.9,13.1,8.4,18.8,13.7c17.1-39.5,56.1-65.1,99.1-65.1c44.8,0,81.8,27.3,97.5,66.1c11.7-0.1,23.2,2.9,33.3,8.9V289H0V74.4
	c13.5,8.2,23,21.6,26.3,37C31.6,109.1,37.4,108,43.2,108z"/>
</svg>
