<svg enable-background="new 0 0 1638.9 288.9" viewBox="0 0 1638.9 288.9" xmlns="http://www.w3.org/2000/svg" xmlns:xlink="http://www.w3.org/1999/xlink"><linearGradient id="a" gradientTransform="matrix(1 0 0 -1 0 289.89)" gradientUnits="userSpaceOnUse" x1="819.5" x2="819.5" y1=".89" y2="289.79"><stop offset="0" stop-color="#3f444c"/><stop offset="1" stop-color="#586067"/></linearGradient><path d="m43.2 108c2.7 0 5.4.2 8.1.8 15.4-36.7 57.7-53.8 94.3-38.4 21.4 9 37.1 27.8 42.2 50.5 37.9-46 106-52.6 152-14.6 4.5 3.7 8.6 7.7 12.5 12.1 16.2-40.7 62.3-60.5 103-44.3.2.1.3.1.5.2 29.9-37.2 84.3-43.1 121.5-13.1 15.3 12.3 25.9 29.4 30.1 48.5 32.3-50.2 99.1-64.7 149.3-32.4 12.6 8.1 23.4 18.7 31.6 31.2 31.6-35.7 86.2-39.1 122-7.5 13.4 11.8 22.7 27.5 26.9 44.8 30.8-36.4 85.3-40.9 121.7-10 2.4 2.1 4.8 4.3 7 6.6-.3-3-.4-6-.4-9.1 0-51.7 41.9-93.6 93.6-93.6 35.5 0 68 20.1 83.8 51.9 29.6-51.8 95.6-69.7 147.4-40.1 6.8 3.9 13.1 8.4 18.8 13.7 17.1-39.5 56.1-65.1 99.1-65.1 44.8 0 81.8 27.3 97.5 66.1 11.7-.1 23.2 2.9 33.3 8.9v213.9h-1639v-214.6c13.5 8.2 23 21.6 26.3 37 5.3-2.3 11.1-3.4 16.9-3.4z" fill="url(#a)"/></svg>