<svg viewBox="0 0 1639.54 127.09" xmlns="http://www.w3.org/2000/svg"><path d="m86.4 19.48a86.55 86.55 0 0 1 25.29 3.75 72 72 0 0 1 120.07 23.55 57.65 57.65 0 0 1 70.83 39.64 79.23 79.23 0 0 1 146-11.73 86.41 86.41 0 0 1 146 6.24 64.8 64.8 0 0 1 109.75 26.37 72.49 72.49 0 0 1 37.43-.3 57.62 57.62 0 0 1 103.37-8.94 79.27 79.27 0 0 1 88-13.18 79.22 79.22 0 0 1 132.56-28.5 72 72 0 0 1 107.8-13.9 86.4 86.4 0 0 1 138 1.21c1.63-.14 3.28-.21 4.94-.21a57.61 57.61 0 0 1 51.46 31.69 43.2 43.2 0 0 1 69.6 22.38 86.53 86.53 0 0 1 82.28 23.5c12-19 30.26-33.13 52-38.26a57.64 57.64 0 0 1 55.72-42.91 106.68 106.68 0 0 1 12 1.25v86.23h-1639.5v-86.23s14.43 4.62 20.53 8.8a86.31 86.31 0 0 1 65.87-30.45z" fill="#fff" transform="translate(0 -.27)"/></svg>