<?xml version="1.0" encoding="utf-8"?>
<!-- Generator: Adobe Illustrator 22.1.0, SVG Export Plug-In . SVG Version: 6.00 Build 0)  -->
<svg version="1.1" id="Layer_2_1_" xmlns="http://www.w3.org/2000/svg" xmlns:xlink="http://www.w3.org/1999/xlink" x="0px" y="0px"
	 viewBox="0 0 1631 127.1" style="enable-background:new 0 0 1631 127.1;" xml:space="preserve">
<style type="text/css">
	.st0{fill:#575F65;}
</style>
<title>clouds-white</title>
<g id="Selection-for-Zeplin">
	<g id="clouds_front">
		<path id="Combined-Shape-Copy-4" class="st0" d="M82.4,19.2c8.6,0,17.1,1.3,25.3,3.8c27.1-29.1,72.6-30.8,101.8-3.7
			c8.1,7.6,14.4,16.9,18.3,27.3c30.5-8.5,62.1,9.2,70.8,39.6c13.4-41.7,58-64.6,99.7-51.2c20.1,6.5,36.7,20.6,46.3,39.4
			c27.2-39.2,81-49,120.2-21.8c10.6,7.3,19.4,16.9,25.8,28.1C615,54.5,656,53,682.2,77.4c8.6,8,14.9,18.3,18.2,29.7
			c12.2-3.4,25.1-3.5,37.4-0.3c11.3-29.7,44.6-44.7,74.4-33.3c12.1,4.6,22.4,13.2,29,24.4c23.9-22,58.7-27.2,88-13.2
			c14.3-41.4,59.4-63.3,100.7-49.1c12.1,4.2,23.1,11.2,31.8,20.6c22-33.1,66.7-42.1,99.8-20c2.8,1.9,5.5,3.9,8,6.1
			c29-37.9,83.3-45,121.1-15.9c6.4,4.9,12.1,10.7,16.9,17.2c1.6-0.1,3.3-0.2,4.9-0.2c21.8,0,41.7,12.3,51.5,31.7
			c18.3-15.3,45.5-12.9,60.9,5.4c4.2,5,7.1,10.8,8.7,17c29.7-7.2,60.9,1.7,82.3,23.5c12-19,30.3-33.1,52-38.3
			c6.7-25.3,29.6-42.9,55.7-42.9c4,0.2,8,0.6,12,1.3v86.2H-4V40.9c0,0,14.4,4.6,20.5,8.8C32.9,30.3,57,19.2,82.4,19.2z"/>
	</g>
</g>
</svg>
